<svg width="637" height="464" viewBox="0 0 637 464" fill="none" xmlns="http://www.w3.org/2000/svg">
<g clip-path="url(#clip0_88_425)">
<path d="M637 464H0V0H637V464ZM1.30133 462.55H635.699V1.45H1.30133V462.55Z" fill="#3F3D56"/>
<path d="M320.127 11.6001H13.0133V452.4H320.127V11.6001Z" fill="#3F3D56"/>
<path d="M625.288 11.6001H318.175V452.4H625.288V11.6001Z" fill="#468189"/>
<path d="M405.287 421.726C404.538 420.185 403.87 418.597 403.287 416.968C400.725 409.832 405.69 404.155 405.902 403.916L406.097 403.699L406.092 403.393C406.036 399.436 404.665 306.269 400.555 287.954C396.845 271.416 385.365 266.902 382.688 266.063L382.694 265.981L369.492 264.096C374.433 227.841 379.384 144.01 323.453 126.748C321.514 126.204 319.537 125.84 317.543 125.661L317.423 127.105C319.338 127.28 321.238 127.627 323.103 128.144C378.052 145.104 373.092 228.062 368.201 263.911L348.209 261.056C343.002 257.802 337.122 251.961 336.431 236.287C343.609 229.571 348.21 220.053 349.294 209.68C349.387 209.693 349.481 209.699 349.574 209.699C352.469 209.699 354.823 205.926 354.823 201.289C354.823 196.651 352.469 192.879 349.574 192.879C348.992 192.851 348.423 193.077 347.988 193.509C345.981 186.086 342.122 179.451 336.86 174.378C331.598 169.306 325.15 166.005 318.268 164.861L318.082 166.296C326.457 167.653 334.113 172.325 339.65 179.456C345.186 186.587 348.234 195.702 348.234 205.131C348.234 214.561 345.186 223.675 339.65 230.806C334.113 237.938 326.457 242.609 318.082 243.966L318.268 245.402C324.431 244.406 330.259 241.652 335.185 237.406C336.077 252.048 341.684 258.285 346.483 261.606C340.998 269.964 332.112 275.024 320.049 276.636C319.405 276.722 318.761 276.794 318.117 276.859L318.233 278.303C318.89 278.237 319.547 278.164 320.204 278.076C332.66 276.412 341.864 271.148 347.568 262.427L347.793 262.459C347.835 262.485 347.878 262.512 347.92 262.538L347.948 262.481L381.29 267.242L371.688 391.046L371.685 391.087L371.685 391.127C371.686 391.132 371.712 392.27 371.712 394.273V394.441L371.712 394.442C371.762 405.367 371.283 416.288 370.277 427.155C369.201 437.93 367.567 446.175 365.419 451.675H348.574C348.655 449.97 348.965 448.289 349.494 446.686L351.001 441.875L348.35 446.027C346.864 448.174 345.113 450.076 343.149 451.675H318.175V453.125H343.573L343.744 452.986C345.09 451.892 346.348 450.671 347.505 449.335C347.334 450.35 347.254 451.382 347.266 452.414L347.278 453.125H393.516L393.668 453.026C396.437 451.22 396.437 447.885 396.437 441.829C396.437 438.031 398.726 435.48 401.15 432.779C402.426 431.447 403.583 429.98 404.604 428.399C406.674 424.939 406.587 424.457 405.287 421.726ZM348.417 195.073C348.91 194.486 349.042 194.329 349.574 194.329C351.714 194.329 353.522 197.516 353.522 201.289C353.522 205.036 351.739 208.206 349.618 208.248C349.572 208.121 349.513 208 349.441 207.889C349.497 206.976 349.535 206.057 349.535 205.131C349.533 201.749 349.147 198.382 348.388 195.108L348.417 195.073ZM375.79 403.501L371.904 423.711C372.78 413.375 372.981 403.277 373.011 397.328L375.79 403.501ZM403.521 427.594C402.546 429.095 401.444 430.488 400.23 431.753C397.725 434.545 395.135 437.431 395.135 441.829C395.135 447.77 395.058 450.318 393.156 451.675H366.832C368.911 446.084 370.498 437.959 371.552 427.496L372.945 425.213L377.158 403.307L373.013 394.098C373.012 392.404 372.992 391.346 372.987 391.131L382.574 267.532C385.388 268.459 395.833 272.887 399.293 288.305C403.254 305.962 404.698 397.257 404.787 403.127C403.799 404.363 399.501 410.328 402.079 417.507C402.679 419.183 403.366 420.819 404.138 422.406C405.24 424.721 405.24 424.721 403.521 427.594Z" fill="#3F3D56"/>
<path d="M318.415 126.686V288.615L290.014 292.305L264.703 295.604L255.848 296.75V296.757L255.431 296.808C255.431 296.808 253.967 291.812 252.815 281.851C250.824 264.632 249.764 232.58 258.841 185.883C270.949 123.554 307.445 124.816 318.415 126.686Z" fill="#2F2E41"/>
<path d="M316.463 422.566L318.415 422.675V452.342H228.344L230.263 444.266L232.684 434.087L243.927 421.559L246.478 418.717L316.463 422.566Z" fill="#2F2E41"/>
<path d="M318.415 165.894V244.252C313.503 245.358 308.438 245.305 303.545 244.096C298.653 242.887 294.042 240.55 290.01 237.233C285.978 233.917 282.614 229.697 280.136 224.844C277.657 219.99 276.119 214.612 275.62 209.056C275.122 203.5 275.673 197.889 277.24 192.585C278.806 187.281 281.353 182.401 284.715 178.261C288.078 174.121 292.182 170.811 296.762 168.547C301.343 166.282 306.299 165.111 311.31 165.111C313.572 165.108 315.83 165.346 318.051 165.822C318.175 165.844 318.292 165.865 318.415 165.894Z" fill="#FFB9B9"/>
<path d="M318.415 231.688V316.593L290.014 292.305L273.376 278.081L286.67 271.346C287.268 271.048 287.893 270.729 288.55 270.396C298.46 265.379 300.132 251.829 300.099 243.042C300.1 240.366 299.929 237.693 299.585 235.045L318.415 231.688Z" fill="#FFB9B9"/>
<path d="M316.463 277.523C317.114 277.457 317.765 277.385 318.415 277.298V452.342H307.992C301.361 450.102 296.137 447.919 296.137 447.919C296.137 447.919 264.41 443.308 254.754 444.845C254.214 444.932 253.577 445.034 252.854 445.15C247.031 446.078 235.989 447.593 230.263 444.265C224.557 440.952 224.121 432.832 239.347 414.54C240.681 412.938 242.138 411.256 243.719 409.494C243.719 409.494 264.41 394.124 261.651 389.513C258.893 384.902 254.754 364.921 254.754 364.921L254.819 360.97L255.848 296.757V296.75L256.134 278.849L286.67 271.346L291.998 275.775C300.037 277.658 308.275 278.246 316.463 277.523Z" fill="#575A89"/>
<path d="M260.612 452.343H244.144L250.618 449.458C250.618 449.458 253.129 449.972 256.721 451.067C257.918 451.429 259.232 451.85 260.612 452.343Z" fill="#FFB9B9"/>
<path d="M261.653 354.163C259.525 355.055 257.196 357.535 254.821 360.971C244.853 375.362 234.065 406.421 234.065 406.421C234.065 406.421 237.702 410.474 239.348 414.541C240.188 416.615 240.513 418.696 239.582 420.254C236.824 424.865 239.582 420.254 242.341 420.254C243.415 420.254 243.864 420.718 243.929 421.559C244.026 422.879 243.181 425.126 242.341 427.939C240.962 432.55 242.341 434.087 249.238 435.624C256.135 437.161 251.997 437.161 251.997 441.772C252.033 442.96 252.327 444.119 252.856 445.151C254.066 447.407 255.646 449.39 257.515 450.994C257.241 451.016 256.981 451.038 256.721 451.067C254.876 451.227 253.058 451.656 251.314 452.343H216.002C216.658 451.491 217.17 450.513 217.512 449.457C218.891 444.846 207.856 437.161 206.477 435.624C205.097 434.087 205.097 427.939 206.477 421.791C207.856 415.643 205.097 415.643 202.338 412.569C199.58 409.495 202.338 404.884 205.097 400.273C207.856 395.662 207.856 397.199 203.718 387.977C199.58 378.755 207.856 377.218 207.856 377.218C207.856 377.218 225.788 335.719 235.444 311.127C241.827 294.866 248.822 285.992 252.817 281.852C253.845 280.749 254.955 279.745 256.135 278.85L263.032 281.924C263.032 281.924 263.833 287.514 264.705 295.598C266.878 315.608 269.513 350.879 261.653 354.163Z" fill="#575A89"/>
<path d="M318.415 152.765V165.155C318.298 165.38 318.175 165.597 318.051 165.822C310.855 178.981 298.017 197.069 278.289 206.937L276.519 195.358L272.83 171.23L318.415 152.765Z" fill="#2F2E41"/>
<path d="M166.695 390.732C166.715 436.43 142.341 452.397 112.268 452.413C111.569 452.413 110.874 452.405 110.182 452.388C108.788 452.355 107.409 452.285 106.044 452.178C78.9015 450.051 57.805 433.29 57.7865 390.791C57.7673 346.811 108.19 291.281 111.972 287.175C111.975 287.175 111.975 287.175 111.978 287.171C112.122 287.015 112.195 286.936 112.195 286.936C112.195 286.936 166.675 345.039 166.695 390.732Z" fill="#468189"/>
<path d="M110.283 445.424L130.185 414.407L110.234 448.828L110.182 452.388C108.788 452.355 107.409 452.285 106.044 452.178L108.17 406.461L108.153 406.107L108.19 406.04L108.392 401.72L88.3606 367.235L108.451 398.484L108.501 399.4L110.107 364.859L92.9562 329.222L110.315 358.788L111.972 287.175L111.978 286.936L111.978 287.171L111.722 343.646L128.768 321.248L111.651 348.509L111.213 379.438L127.132 349.749L111.152 383.985L110.908 401.182L134.012 359.856L110.821 407.182L110.283 445.424Z" fill="#3F3D56"/>
<path d="M537.514 320.539C529.179 308.2 520.051 296.553 510.201 285.688L509.753 285.21L509.073 285.931C503.505 291.977 454.672 346.263 454.691 390.067C454.712 437.781 480.771 450.194 502.917 452.121L502.917 452.125L503.554 452.176C504.922 452.284 506.325 452.356 507.722 452.388L507.727 452.388L508.378 452.403L508.378 452.396C508.828 452.404 509.277 452.413 509.73 452.413H509.823C526.309 452.404 539.407 447.73 548.752 438.521C559.478 427.954 564.911 411.632 564.901 390.008C564.891 366.204 550.002 339.092 537.514 320.539ZM520.118 380.982L507.728 406.266L507.155 447.011L512.261 439.053L507.142 447.884L507.098 450.914C506.947 450.909 506.796 450.903 506.645 450.897C505.99 450.872 505.337 450.839 504.688 450.797C504.553 450.789 504.418 450.781 504.283 450.771L506.376 405.774L506.377 405.735L506.37 405.568L506.609 400.798L501.445 391.909L505.368 398.012L505.408 398.72L506.707 398.713L508.313 364.172L508.322 363.97L498.143 342.819L508.379 360.254L508.08 381.411L513.925 370.51L508.059 383.077L507.776 403.059L520.118 380.982ZM455.993 390.066C455.985 371.847 464.578 349.53 481.534 323.734C489.856 311.182 498.98 299.317 508.837 288.231L507.274 355.723L491.056 328.099L489.938 328.839L507.004 364.298L505.54 395.788L486.445 366.088L485.37 366.904L505.287 401.192L505.105 405.094L505.048 405.197L505.075 405.737L502.984 450.673C481.396 448.782 456.013 436.645 455.993 390.066ZM517.761 332.895L508.772 347.211L508.832 344.628L517.761 332.895ZM509.822 450.963C509.345 450.961 508.872 450.953 508.399 450.946L508.437 448.323L528.287 414.076L527.211 413.26L508.521 442.387L509.024 406.647L532.138 359.478L531.015 358.748L509.151 397.857L509.355 383.442L525.265 349.358L524.129 348.652L509.458 376.015L509.854 348.018L526.856 320.939L525.827 320.054L509.937 340.933L510.179 287.695C517.161 295.413 563.581 348.311 563.6 390.008C563.622 440.364 534.368 450.949 509.822 450.963Z" fill="#3F3D56"/>
</g>
<defs>
<clipPath id="clip0_88_425">
<rect width="637" height="464" fill="white"/>
</clipPath>
</defs>
</svg>
