<svg width="523" height="479" viewBox="0 0 523 479" fill="none" xmlns="http://www.w3.org/2000/svg">
<g clip-path="url(#clip0_90_446)">
<path d="M177.043 215.396C155.362 215.396 134.168 209.079 116.142 197.245C98.1147 185.411 84.0645 168.591 75.7676 148.912C67.4708 129.233 65.3 107.578 69.5297 86.687C73.7594 65.7957 84.1996 46.6058 99.5302 31.544C114.861 16.4822 134.393 6.22497 155.657 2.06943C176.921 -2.08611 198.962 0.0466669 218.992 8.19805C239.023 16.3494 256.143 30.1533 268.188 47.8641C280.233 65.5749 286.662 86.3972 286.662 107.698C286.629 136.251 275.07 163.626 254.519 183.816C233.969 204.006 206.106 215.363 177.043 215.396ZM177.043 1.69608C155.704 1.69608 134.844 7.91297 117.101 19.5606C99.3577 31.2082 85.5287 47.7634 77.3625 67.1327C69.1964 86.502 67.0597 107.815 71.2228 128.378C75.3859 148.94 85.6617 167.828 100.751 182.652C115.84 197.477 135.065 207.573 155.994 211.663C176.923 215.753 198.617 213.654 218.332 205.631C238.047 197.608 254.897 184.021 266.753 166.589C278.608 149.157 284.936 128.663 284.936 107.698C284.936 79.5844 273.569 52.6224 253.335 32.7433C233.101 12.8641 205.658 1.69608 177.043 1.69608Z" fill="#F2F2F2"/>
<path d="M108.303 111.559C105.257 100.647 129.826 91.2902 136.278 100.077C137.175 98.828 140.491 98.0692 142.012 98.4524C143.501 98.9382 144.877 99.7093 146.061 100.721C147.777 102.016 149.556 103.358 150.609 105.22C151.67 107.075 151.834 109.604 150.406 111.214C149.275 112.494 145.936 113.321 144.235 113.659C143.05 113.896 142.051 114.088 141.193 114.226C140.413 113.122 140.054 111.785 140.179 110.447C139.601 110.83 139.117 111.334 138.761 111.922C138.405 112.51 138.186 113.169 138.119 113.85C138.096 114.134 147.707 148.876 147.707 148.876C146.552 149.522 145.337 150.059 144.079 150.478C141.59 146.741 139.684 142.659 138.424 138.369C138.134 141.238 138.17 144.13 138.533 146.991C138.725 148.595 139.001 150.189 139.36 151.766C127.939 154.188 110.761 153.391 103.287 143.09L103.283 142.962C103.278 142.555 103.128 142.163 102.86 141.853C102.593 141.543 102.224 141.334 101.816 141.262C101.409 141.189 100.989 141.258 100.628 141.457C100.267 141.656 99.987 141.972 99.8369 142.351C99.6555 142.805 99.4887 143.199 99.3397 143.511C97.1633 135.862 99.9795 127.01 108.303 111.559Z" fill="#2F2E41"/>
<path d="M162.163 460.57L170.673 460.5L174.44 427.501L161.881 427.605L162.163 460.57Z" fill="#A0616A"/>
<path d="M187.753 470.804L174.162 461.747L174.111 455.765L171.188 455.957L162.129 456.57L159.908 456.716L158.296 477.861L164.68 477.804L165.768 471.875L168.73 477.774L185.648 477.635C186.459 477.628 187.247 477.367 187.896 476.889C188.545 476.411 189.022 475.742 189.257 474.98C189.492 474.217 189.473 473.401 189.202 472.65C188.932 471.898 188.424 471.252 187.753 470.804H187.753Z" fill="#2F2E41"/>
<path d="M77.3128 457.31L85.7259 458.567L94.7716 426.572L82.3544 424.718L77.3128 457.31Z" fill="#A0616A"/>
<path d="M100.927 471.401L88.9699 460.342L89.885 454.427L86.9682 454.161L77.9246 453.356L75.7083 453.153L70.7036 473.779L77.0158 474.718L79.0468 469.034L81.0191 475.319L97.7461 477.818C98.548 477.937 99.3678 477.802 100.086 477.432C100.804 477.061 101.383 476.475 101.738 475.759C102.093 475.042 102.206 474.233 102.06 473.449C101.914 472.666 101.517 471.948 100.927 471.401H100.927Z" fill="#2F2E41"/>
<path d="M158.25 230.027L182.377 272.482C182.377 272.482 181.37 359.798 184.577 363.036C187.783 366.275 190.686 369.179 187.783 369.153C184.88 369.127 181.366 376.067 181.366 376.067L175.361 441.673H160.219C160.219 441.673 149.564 402.984 151.835 380.922L133.897 300.295C133.897 300.295 121.01 376.543 118.688 378.825C116.365 381.107 114.964 381.09 117.407 383.38C119.849 385.67 117.407 390.849 117.407 390.849L91.946 442.765L78.1357 441.054C78.1357 441.054 80.5299 398.671 88.8672 380.477V294.492C88.2392 301.864 117.613 227.249 99.6504 232.849C105.333 231.077 158.25 230.027 158.25 230.027Z" fill="#2F2E41"/>
<path d="M137.743 149.073L113.216 143.962L108.346 153.593L91.946 162.921C91.946 162.921 102.517 205.386 102.457 211.359C102.304 226.522 77.6089 260.513 96.2617 257.898C114.915 255.283 118.703 244.33 124.692 246.062C149.396 253.207 178.757 252.45 168.766 242.634C158.775 232.818 161.008 167.477 161.008 167.477L141.656 158.492L137.743 149.073Z" fill="#468189"/>
<path d="M91.4822 303.289C92.4677 302.135 92.9557 300.648 92.8425 299.145C92.7293 297.643 92.0237 296.243 90.8759 295.243C90.6393 295.044 90.3863 294.864 90.1196 294.705L94.2205 274.932L84.7401 269.357L82.1032 297.041C81.5198 298.179 81.3362 299.474 81.581 300.725C81.8258 301.976 82.4852 303.113 83.4564 303.957C84.582 304.916 86.0494 305.397 87.5359 305.294C89.0223 305.19 90.4061 304.511 91.3827 303.405C91.4164 303.367 91.4495 303.328 91.4822 303.289Z" fill="#A0616A"/>
<path d="M86.2456 210.767L87.0343 174.735C87.0838 172.47 87.5941 170.237 88.5353 168.169C89.4765 166.101 90.8294 164.239 92.5145 162.692C94.1995 161.145 96.1825 159.945 98.3467 159.163C100.511 158.381 102.813 158.032 105.116 158.138C112.61 158.482 110.613 161.424 112.604 168.531C115.839 180.083 117.083 186.76 116.302 188.378C116.038 188.925 115.759 189.45 115.492 189.955C114.112 192.554 113.115 194.432 115.648 196.232C116.65 196.883 117.742 197.39 118.889 197.739C120.033 198.138 120.859 198.427 120.917 199.062C120.973 199.677 120.267 200.314 118.311 201.414C113.059 204.367 108.505 222.016 108.461 222.19L93.2209 284.997L81.0806 284.405L86.2456 210.767Z" fill="#468189"/>
<path d="M239.006 259.997C237.488 259.784 236.114 258.998 235.176 257.806C234.239 256.614 233.812 255.109 233.986 253.612C234.027 253.308 234.093 253.008 234.183 252.715L217.687 240.693L220.951 230.322L241.737 249.192C242.945 249.655 243.962 250.499 244.631 251.591C245.299 252.682 245.581 253.96 245.432 255.226C245.341 255.945 245.106 256.64 244.741 257.27C244.376 257.9 243.888 258.453 243.306 258.898C242.723 259.343 242.057 259.671 241.346 259.863C240.634 260.055 239.891 260.108 239.159 260.018C239.108 260.011 239.057 260.004 239.006 259.997Z" fill="#A0616A"/>
<path d="M233.906 239.118L225.275 247.527L171.228 210.793C171.076 210.693 155.686 200.548 149.771 201.798C147.568 202.263 146.609 202.253 146.232 201.758C145.843 201.248 146.262 200.491 146.842 199.443C147.458 198.431 147.925 197.337 148.228 196.194C148.89 193.193 146.871 192.449 144.077 191.421C143.534 191.221 142.97 191.013 142.401 190.779C140.721 190.088 137.106 184.303 131.658 173.583C128.307 166.988 124.82 166.11 130.163 160.935C131.806 159.345 133.755 158.094 135.898 157.255C138.04 156.417 140.331 156.008 142.637 156.053C144.942 156.098 147.215 156.596 149.322 157.517C151.429 158.439 153.327 159.765 154.904 161.418L179.991 187.712L233.906 239.118Z" fill="#468189"/>
<path d="M127.395 143.601C138.446 143.601 147.405 134.799 147.405 123.941C147.405 113.084 138.446 104.282 127.395 104.282C116.343 104.282 107.384 113.084 107.384 123.941C107.384 134.799 116.343 143.601 127.395 143.601Z" fill="#A0616A"/>
<path d="M97.3817 113.092C94.3355 102.18 118.905 92.8231 125.357 101.61C126.254 100.361 129.569 99.6022 131.09 99.9854C132.58 100.471 133.956 101.242 135.139 102.254C136.856 103.549 138.634 104.891 139.687 106.753C140.748 108.608 140.912 111.137 139.485 112.747C138.353 114.027 135.014 114.854 133.314 115.192C132.128 115.429 131.129 115.621 130.271 115.759C129.492 114.655 129.133 113.318 129.257 111.98C128.68 112.363 128.195 112.867 127.839 113.455C127.483 114.043 127.264 114.702 127.198 115.383C127.174 115.667 136.785 150.409 136.785 150.409C135.631 151.055 134.416 151.591 133.158 152.011C130.669 148.274 128.763 144.192 127.502 139.902C127.212 142.771 127.249 145.663 127.611 148.524C127.804 150.128 128.08 151.722 128.438 153.299C117.017 155.721 99.8391 154.924 92.3656 144.623L92.3618 144.495C92.356 144.088 92.2065 143.696 91.9388 143.386C91.6712 143.076 91.3021 142.867 90.8948 142.795C90.4875 142.722 90.0673 142.792 89.7062 142.99C89.3451 143.189 89.0655 143.505 88.9153 143.884C88.734 144.338 88.5671 144.731 88.4182 145.044C86.2417 137.395 89.0579 128.543 97.3817 113.092Z" fill="#2F2E41"/>
<path d="M46.8335 464.001C46.4323 464.019 46.0351 463.916 45.6958 463.705C45.3565 463.493 45.0914 463.185 44.9364 462.821C44.7815 462.457 44.7442 462.055 44.8296 461.669C44.915 461.284 45.119 460.933 45.4139 460.665L45.5481 460.141C45.5304 460.099 45.5127 460.057 45.4948 460.015C45.0906 459.077 44.4133 458.278 43.548 457.717C42.6828 457.156 41.668 456.859 40.6313 456.862C39.5946 456.866 38.5822 457.171 37.7212 457.738C36.8601 458.305 36.1889 459.11 35.7919 460.051C34.2049 463.806 32.1844 467.568 31.6869 471.538C31.4678 473.293 31.5602 475.072 31.9601 476.796C28.2327 468.808 26.2972 460.126 26.2848 451.338C26.284 449.133 26.4087 446.929 26.6583 444.738C26.8646 442.941 27.1508 441.158 27.5169 439.387C29.5147 429.778 33.804 420.771 40.0326 413.107C43.0472 411.491 45.4852 409.006 47.018 405.987C47.5733 404.901 47.9657 403.743 48.1832 402.547C47.8431 402.591 46.9009 397.503 47.1574 397.19C46.6835 396.484 45.8353 396.133 45.3177 395.443C42.7435 392.014 39.1969 392.613 37.3455 397.273C33.3903 399.234 33.3521 402.486 35.7789 405.614C37.3228 407.604 37.535 410.297 38.8897 412.428C38.7503 412.603 38.6054 412.773 38.466 412.948C35.9182 416.167 33.6977 419.623 31.8362 423.267C32.2889 419.185 31.7486 415.055 30.2597 411.218C28.7508 407.641 25.9225 404.629 23.4318 401.537C22.7731 400.707 21.8785 400.087 20.8612 399.756C19.8439 399.425 18.7494 399.397 17.7163 399.677C16.6831 399.957 15.7576 400.531 15.0567 401.328C14.3558 402.125 13.9109 403.107 13.7784 404.152C13.7733 404.198 13.7684 404.243 13.7635 404.289C14.1334 404.494 14.4956 404.712 14.8499 404.942C15.295 405.234 15.6399 405.651 15.8394 406.139C16.0389 406.627 16.0836 407.163 15.9679 407.677C15.8521 408.19 15.5811 408.657 15.1905 409.017C14.7998 409.377 14.3077 409.612 13.7787 409.692L13.7245 409.7C13.8563 411.01 14.0892 412.308 14.4213 413.584C11.2262 425.724 18.1243 430.145 27.974 430.344C28.1914 430.453 28.4033 430.563 28.6207 430.667C26.7505 435.874 25.5773 441.298 25.1308 446.803C24.878 450.05 24.8929 453.313 25.1754 456.558L25.1587 456.443C24.445 452.834 22.4857 449.578 19.6116 447.225C15.3428 443.779 9.31181 442.511 4.70656 439.742C4.21713 439.433 3.64803 439.268 3.06641 439.267C2.48478 439.265 1.91489 439.427 1.42393 439.734C0.932974 440.04 0.541444 440.478 0.295507 440.996C0.0495702 441.514 -0.0405192 442.09 0.0358894 442.656L0.0547233 442.777C0.741218 443.052 1.40964 443.368 2.05607 443.725C2.42601 443.93 2.78814 444.147 3.14245 444.378C3.58757 444.67 3.93246 445.087 4.13196 445.575C4.33145 446.063 4.37621 446.599 4.26042 447.113C4.14463 447.626 3.87369 448.093 3.48304 448.453C3.0924 448.813 2.60029 449.048 2.07121 449.128L2.017 449.136C1.97799 449.142 1.94449 449.147 1.90555 449.153C3.07855 451.904 4.72488 454.437 6.77244 456.64C8.7703 467.238 17.3512 468.243 26.53 465.157H26.5356C27.5427 469.457 29.0019 473.642 30.8897 477.645H46.4437C46.4995 477.475 46.5497 477.3 46.5998 477.13C45.1601 477.219 43.7147 477.135 42.2959 476.878C43.45 475.487 44.604 474.085 45.758 472.694C45.7838 472.668 45.808 472.64 45.8305 472.612C46.4159 471.9 47.0068 471.193 47.5922 470.481L47.5925 470.48C47.6237 468.297 47.3688 466.12 46.834 464.001L46.8335 464.001Z" fill="#F2F2F2"/>
<path d="M0.576146 477.991C0.575744 478.123 0.60203 478.255 0.65351 478.377C0.70499 478.5 0.780653 478.612 0.876118 478.705C0.971584 478.799 1.08497 478.873 1.20978 478.924C1.33459 478.975 1.46834 479 1.60334 479H220.229C220.502 479 220.763 478.894 220.956 478.704C221.148 478.515 221.257 478.258 221.257 477.991C221.257 477.723 221.148 477.466 220.956 477.277C220.763 477.088 220.502 476.982 220.229 476.982H1.60334C1.46834 476.981 1.33459 477.007 1.20978 477.058C1.08498 477.108 0.971583 477.183 0.876118 477.276C0.780654 477.37 0.704991 477.482 0.65351 477.604C0.602028 477.727 0.575748 477.858 0.576146 477.991Z" fill="#CCCCCC"/>
<path d="M478.306 48.439H257.752C255.134 48.439 252.542 48.9456 250.124 49.9298C247.705 50.9141 245.507 52.3567 243.656 54.1754C241.805 55.994 240.337 58.1531 239.335 60.5293C238.333 62.9055 237.818 65.4523 237.818 68.0243V395.195C237.817 400.39 239.918 405.371 243.656 409.044C247.395 412.717 252.465 414.781 257.752 414.781H478.306C483.593 414.781 488.663 412.717 492.402 409.044C496.14 405.371 498.241 400.39 498.241 395.195C527.498 284.009 528.398 174.887 498.241 68.0243C498.241 62.83 496.14 57.8483 492.402 54.1754C488.663 50.5024 483.593 48.439 478.306 48.439ZM264.452 369.452C264.452 370.293 264.112 371.099 263.506 371.694C262.901 372.288 262.08 372.623 261.224 372.623H252.882C252.026 372.623 251.205 372.288 250.6 371.694C249.995 371.099 249.655 370.293 249.655 369.452V361.256C249.655 360.415 249.995 359.608 250.6 359.014C251.205 358.419 252.026 358.085 252.882 358.085H261.224C262.08 358.085 262.901 358.419 263.506 359.014C264.112 359.608 264.452 360.415 264.452 361.256V369.452ZM264.452 337.106C264.452 337.947 264.112 338.754 263.506 339.348C262.901 339.943 262.08 340.277 261.224 340.277H252.882C252.026 340.277 251.205 339.943 250.6 339.348C249.995 338.754 249.655 337.947 249.655 337.106V328.91C249.655 328.494 249.738 328.082 249.901 327.697C250.063 327.312 250.301 326.963 250.6 326.668C250.9 326.374 251.256 326.14 251.647 325.981C252.039 325.822 252.458 325.739 252.882 325.739H261.224C261.648 325.739 262.068 325.822 262.459 325.981C262.851 326.14 263.207 326.374 263.506 326.668C263.806 326.963 264.044 327.312 264.206 327.697C264.368 328.082 264.452 328.494 264.452 328.91V337.106ZM264.452 304.76C264.452 305.601 264.112 306.408 263.506 307.003C262.901 307.597 262.08 307.931 261.224 307.931H252.882C252.026 307.931 251.205 307.597 250.6 307.003C249.995 306.408 249.655 305.601 249.655 304.76V296.565C249.655 295.724 249.995 294.917 250.6 294.322C251.205 293.728 252.026 293.394 252.882 293.394H261.224C262.08 293.394 262.901 293.728 263.506 294.322C264.112 294.917 264.452 295.724 264.452 296.565V304.76ZM264.452 272.415C264.452 273.256 264.112 274.062 263.506 274.657C262.901 275.251 262.08 275.585 261.224 275.585H252.882C252.026 275.585 251.205 275.251 250.6 274.657C249.995 274.062 249.655 273.256 249.655 272.415V264.219C249.655 263.378 249.995 262.571 250.6 261.977C251.205 261.382 252.026 261.048 252.882 261.048H261.224C262.08 261.048 262.901 261.382 263.506 261.977C264.112 262.571 264.452 263.378 264.452 264.219V272.415ZM264.452 240.069C264.452 240.91 264.112 241.717 263.506 242.311C262.901 242.906 262.08 243.24 261.224 243.24H252.882C252.026 243.24 251.205 242.906 250.6 242.311C249.995 241.717 249.655 240.91 249.655 240.069V231.873C249.655 231.032 249.995 230.226 250.6 229.631C251.205 229.037 252.026 228.702 252.882 228.702H261.224C262.08 228.702 262.901 229.037 263.506 229.631C264.112 230.226 264.452 231.032 264.452 231.873V240.069ZM264.452 207.723C264.452 208.564 264.112 209.371 263.506 209.965C262.901 210.56 262.08 210.894 261.224 210.894H252.882C252.026 210.894 251.205 210.56 250.6 209.965C249.995 209.371 249.655 208.564 249.655 207.723V199.528C249.655 198.687 249.995 197.88 250.6 197.285C251.205 196.691 252.026 196.357 252.882 196.357H261.224C262.08 196.357 262.901 196.691 263.506 197.285C264.112 197.88 264.452 198.687 264.452 199.528V207.723ZM264.452 175.378C264.452 176.219 264.112 177.025 263.506 177.62C262.901 178.214 262.08 178.549 261.224 178.549H252.882C252.026 178.549 251.205 178.214 250.6 177.62C249.995 177.025 249.655 176.219 249.655 175.378V167.182C249.655 166.341 249.995 165.534 250.6 164.94C251.205 164.345 252.026 164.011 252.882 164.011H261.224C262.08 164.011 262.901 164.345 263.506 164.94C264.112 165.534 264.452 166.341 264.452 167.182V175.378ZM264.452 143.032C264.452 143.873 264.112 144.68 263.506 145.274C262.901 145.869 262.08 146.203 261.224 146.203H252.882C252.026 146.203 251.205 145.869 250.6 145.274C249.995 144.68 249.655 143.873 249.655 143.032V134.836C249.655 133.995 249.995 133.189 250.6 132.594C251.205 132 252.026 131.665 252.882 131.665H261.224C262.08 131.665 262.901 132 263.506 132.594C264.112 133.189 264.452 133.995 264.452 134.836V143.032ZM264.452 110.686C264.452 111.527 264.112 112.334 263.506 112.928C262.901 113.523 262.08 113.857 261.224 113.857H252.882C252.026 113.857 251.205 113.523 250.6 112.928C249.995 112.334 249.655 111.527 249.655 110.686V102.491C249.655 101.65 249.995 100.843 250.6 100.248C251.205 99.6538 252.026 99.3198 252.882 99.3198H261.224C262.08 99.3198 262.901 99.6538 263.506 100.248C264.112 100.843 264.452 101.65 264.452 102.491V110.686Z" fill="#F2F2F2"/>
<path d="M262.569 65.8838H251.538C250.498 65.8838 249.655 66.7119 249.655 67.7334V78.5716C249.655 79.5931 250.498 80.4212 251.538 80.4212H262.569C263.609 80.4212 264.452 79.5931 264.452 78.5716V67.7334C264.452 66.7119 263.609 65.8838 262.569 65.8838Z" fill="#468189"/>
<path d="M455.33 107.436H294.255C294.026 107.436 293.806 107.347 293.645 107.188C293.483 107.029 293.392 106.813 293.392 106.588C293.392 106.363 293.483 106.148 293.645 105.989C293.806 105.83 294.026 105.74 294.255 105.74H455.33C455.559 105.74 455.779 105.83 455.94 105.989C456.102 106.148 456.193 106.363 456.193 106.588C456.193 106.813 456.102 107.029 455.94 107.188C455.779 107.347 455.559 107.436 455.33 107.436Z" fill="#E6E6E6"/>
<path d="M455.33 75.4541H409.46C409.231 75.4541 409.011 75.3647 408.85 75.2057C408.688 75.0467 408.597 74.831 408.597 74.6061C408.597 74.3812 408.688 74.1655 408.85 74.0064C409.011 73.8474 409.231 73.7581 409.46 73.7581H455.33C455.559 73.7581 455.779 73.8474 455.94 74.0064C456.102 74.1655 456.193 74.3812 456.193 74.6061C456.193 74.831 456.102 75.0467 455.94 75.2057C455.779 75.3647 455.559 75.4541 455.33 75.4541Z" fill="#E6E6E6"/>
<path d="M455.33 139.419H294.255C294.026 139.419 293.806 139.329 293.645 139.17C293.483 139.011 293.392 138.796 293.392 138.571C293.392 138.346 293.483 138.13 293.645 137.971C293.806 137.812 294.026 137.723 294.255 137.723H455.33C455.559 137.723 455.779 137.812 455.94 137.971C456.102 138.13 456.193 138.346 456.193 138.571C456.193 138.796 456.102 139.011 455.94 139.17C455.779 139.329 455.559 139.419 455.33 139.419Z" fill="#E6E6E6"/>
<path d="M455.33 171.401H294.255C294.026 171.401 293.806 171.312 293.645 171.152C293.483 170.993 293.392 170.778 293.392 170.553C293.392 170.328 293.483 170.112 293.645 169.953C293.806 169.794 294.026 169.705 294.255 169.705H455.33C455.559 169.705 455.779 169.794 455.94 169.953C456.102 170.112 456.193 170.328 456.193 170.553C456.193 170.778 456.102 170.993 455.94 171.152C455.779 171.312 455.559 171.401 455.33 171.401Z" fill="#E6E6E6"/>
<path d="M455.33 203.383H294.255C294.026 203.383 293.806 203.294 293.645 203.135C293.483 202.976 293.392 202.76 293.392 202.535C293.392 202.31 293.483 202.095 293.645 201.936C293.806 201.777 294.026 201.687 294.255 201.687H455.33C455.559 201.687 455.779 201.777 455.94 201.936C456.102 202.095 456.193 202.31 456.193 202.535C456.193 202.76 456.102 202.976 455.94 203.135C455.779 203.294 455.559 203.383 455.33 203.383Z" fill="#E6E6E6"/>
<path d="M455.33 235.365H294.255C294.026 235.365 293.806 235.276 293.645 235.117C293.483 234.958 293.392 234.742 293.392 234.517C293.392 234.293 293.483 234.077 293.645 233.918C293.806 233.759 294.026 233.669 294.255 233.669H455.33C455.559 233.669 455.779 233.759 455.94 233.918C456.102 234.077 456.193 234.293 456.193 234.517C456.193 234.742 456.102 234.958 455.94 235.117C455.779 235.276 455.559 235.365 455.33 235.365Z" fill="#E6E6E6"/>
<path d="M455.33 267.347H294.255C294.026 267.347 293.806 267.258 293.645 267.099C293.483 266.94 293.392 266.724 293.392 266.499C293.392 266.274 293.483 266.059 293.645 265.9C293.806 265.741 294.026 265.651 294.255 265.651H455.33C455.559 265.651 455.779 265.741 455.94 265.9C456.102 266.059 456.193 266.274 456.193 266.499C456.193 266.724 456.102 266.94 455.94 267.099C455.779 267.258 455.559 267.347 455.33 267.347Z" fill="#E6E6E6"/>
<path d="M455.33 299.33H294.255C294.026 299.33 293.806 299.241 293.645 299.082C293.483 298.923 293.392 298.707 293.392 298.482C293.392 298.257 293.483 298.041 293.645 297.882C293.806 297.723 294.026 297.634 294.255 297.634H455.33C455.559 297.634 455.779 297.723 455.94 297.882C456.102 298.041 456.193 298.257 456.193 298.482C456.193 298.707 456.102 298.923 455.94 299.082C455.779 299.241 455.559 299.33 455.33 299.33Z" fill="#E6E6E6"/>
<path d="M455.33 331.312H294.255C294.026 331.312 293.806 331.223 293.645 331.064C293.483 330.905 293.392 330.689 293.392 330.464C293.392 330.239 293.483 330.023 293.645 329.864C293.806 329.705 294.026 329.616 294.255 329.616H455.33C455.559 329.616 455.779 329.705 455.94 329.864C456.102 330.023 456.193 330.239 456.193 330.464C456.193 330.689 456.102 330.905 455.94 331.064C455.779 331.223 455.559 331.312 455.33 331.312Z" fill="#E6E6E6"/>
<path d="M455.33 363.295H294.255C294.026 363.295 293.806 363.205 293.645 363.046C293.483 362.887 293.392 362.672 293.392 362.447C293.392 362.222 293.483 362.006 293.645 361.847C293.806 361.688 294.026 361.599 294.255 361.599H455.33C455.559 361.599 455.779 361.688 455.94 361.847C456.102 362.006 456.193 362.222 456.193 362.447C456.193 362.672 456.102 362.887 455.94 363.046C455.779 363.205 455.559 363.295 455.33 363.295Z" fill="#E6E6E6"/>
<path d="M431.45 99.9702H320.363C319.93 99.9709 319.502 99.8878 319.102 99.7257C318.702 99.5635 318.339 99.3255 318.033 99.0253C317.726 98.725 317.484 98.3684 317.318 97.9759C317.152 97.5833 317.067 97.1625 317.067 96.7376C317.067 96.3126 317.152 95.8918 317.318 95.4993C317.484 95.1067 317.726 94.7501 318.033 94.4499C318.339 94.1496 318.702 93.9116 319.102 93.7495C319.502 93.5873 319.93 93.5042 320.363 93.5049H431.45C432.322 93.5063 433.158 93.8475 433.774 94.4536C434.39 95.0597 434.735 95.8811 434.735 96.7376C434.735 97.594 434.39 98.4155 433.774 99.0216C433.158 99.6277 432.322 99.9689 431.45 99.9702Z" fill="#CCCCCC"/>
<path d="M431.45 131.952H320.363C319.49 131.952 318.653 131.612 318.036 131.006C317.419 130.399 317.072 129.577 317.072 128.72C317.072 127.862 317.419 127.04 318.036 126.434C318.653 125.828 319.49 125.487 320.363 125.487H431.45C432.323 125.487 433.16 125.828 433.777 126.434C434.394 127.04 434.741 127.862 434.741 128.72C434.741 129.577 434.394 130.399 433.777 131.006C433.16 131.612 432.323 131.952 431.45 131.952Z" fill="#CCCCCC"/>
<path d="M431.45 163.935H320.363C319.93 163.935 319.502 163.852 319.102 163.69C318.702 163.528 318.339 163.29 318.033 162.99C317.726 162.689 317.484 162.333 317.318 161.94C317.152 161.548 317.067 161.127 317.067 160.702C317.067 160.277 317.152 159.856 317.318 159.464C317.484 159.071 317.726 158.714 318.033 158.414C318.339 158.114 318.702 157.876 319.102 157.714C319.502 157.552 319.93 157.469 320.363 157.469H431.45C432.322 157.471 433.158 157.812 433.774 158.418C434.39 159.024 434.735 159.845 434.735 160.702C434.735 161.558 434.39 162.38 433.774 162.986C433.158 163.592 432.322 163.933 431.45 163.935Z" fill="#CCCCCC"/>
<path d="M431.45 195.917H320.363C319.49 195.917 318.653 195.576 318.036 194.97C317.419 194.364 317.072 193.541 317.072 192.684C317.072 191.827 317.419 191.004 318.036 190.398C318.653 189.792 319.49 189.451 320.363 189.451H431.45C432.323 189.451 433.16 189.792 433.777 190.398C434.394 191.004 434.741 191.827 434.741 192.684C434.741 193.541 434.394 194.364 433.777 194.97C433.16 195.576 432.323 195.917 431.45 195.917Z" fill="#CCCCCC"/>
<path d="M431.45 227.899H320.363C319.93 227.9 319.502 227.817 319.102 227.654C318.702 227.492 318.339 227.254 318.033 226.954C317.726 226.654 317.484 226.297 317.318 225.905C317.152 225.512 317.067 225.091 317.067 224.666C317.067 224.241 317.152 223.821 317.318 223.428C317.484 223.035 317.726 222.679 318.033 222.379C318.339 222.078 318.702 221.84 319.102 221.678C319.502 221.516 319.93 221.433 320.363 221.434H431.45C432.322 221.435 433.158 221.776 433.774 222.382C434.39 222.988 434.735 223.81 434.735 224.666C434.735 225.523 434.39 226.344 433.774 226.95C433.158 227.556 432.322 227.898 431.45 227.899Z" fill="#CCCCCC"/>
<path d="M431.45 259.881H320.363C319.93 259.882 319.502 259.799 319.102 259.637C318.702 259.475 318.339 259.237 318.033 258.936C317.726 258.636 317.484 258.28 317.318 257.887C317.152 257.494 317.067 257.074 317.067 256.649C317.067 256.224 317.152 255.803 317.318 255.41C317.484 255.018 317.726 254.661 318.033 254.361C318.339 254.061 318.702 253.823 319.102 253.661C319.502 253.498 319.93 253.415 320.363 253.416H431.45C432.322 253.417 433.158 253.759 433.774 254.365C434.39 254.971 434.735 255.792 434.735 256.649C434.735 257.505 434.39 258.327 433.774 258.933C433.158 259.539 432.322 259.88 431.45 259.881Z" fill="#CCCCCC"/>
<path d="M431.45 291.864H320.363C319.49 291.864 318.653 291.523 318.036 290.917C317.419 290.31 317.072 289.488 317.072 288.631C317.072 287.774 317.419 286.951 318.036 286.345C318.653 285.739 319.49 285.398 320.363 285.398H431.45C432.323 285.398 433.16 285.739 433.777 286.345C434.394 286.951 434.741 287.774 434.741 288.631C434.741 289.488 434.394 290.31 433.777 290.917C433.16 291.523 432.323 291.864 431.45 291.864Z" fill="#CCCCCC"/>
<path d="M431.45 323.846H320.363C319.93 323.846 319.502 323.763 319.102 323.601C318.702 323.439 318.339 323.201 318.033 322.901C317.726 322.6 317.484 322.244 317.318 321.851C317.152 321.459 317.067 321.038 317.067 320.613C317.067 320.188 317.152 319.767 317.318 319.375C317.484 318.982 317.726 318.626 318.033 318.325C318.339 318.025 318.702 317.787 319.102 317.625C319.502 317.463 319.93 317.38 320.363 317.38H431.45C432.322 317.382 433.158 317.723 433.774 318.329C434.39 318.935 434.735 319.757 434.735 320.613C434.735 321.469 434.39 322.291 433.774 322.897C433.158 323.503 432.322 323.844 431.45 323.846Z" fill="#CCCCCC"/>
<path d="M431.45 355.828H320.363C319.931 355.828 319.503 355.744 319.104 355.582C318.704 355.419 318.342 355.181 318.036 354.881C317.731 354.581 317.488 354.225 317.323 353.832C317.157 353.44 317.072 353.02 317.072 352.595C317.072 352.171 317.157 351.75 317.323 351.358C317.488 350.966 317.731 350.61 318.036 350.309C318.342 350.009 318.704 349.771 319.104 349.609C319.503 349.446 319.931 349.363 320.363 349.363H431.45C432.323 349.363 433.16 349.703 433.777 350.309C434.394 350.916 434.741 351.738 434.741 352.595C434.741 353.453 434.394 354.275 433.777 354.881C433.16 355.487 432.323 355.828 431.45 355.828Z" fill="#CCCCCC"/>
<path d="M331.098 75.7756H302.35C302.121 75.7756 301.901 75.865 301.739 76.024C301.577 76.183 301.487 76.3987 301.487 76.6236C301.487 76.8486 301.577 77.0642 301.739 77.2233C301.901 77.3823 302.121 77.4717 302.35 77.4717H315.861V105.149C315.861 105.374 315.952 105.589 316.114 105.749C316.275 105.908 316.495 105.997 316.724 105.997C316.953 105.997 317.172 105.908 317.334 105.749C317.496 105.589 317.587 105.374 317.587 105.149V90.7459C317.587 87.2253 319.01 83.849 321.544 81.3596C324.078 78.8702 327.515 77.4717 331.098 77.4717C331.327 77.4717 331.547 77.3823 331.708 77.2233C331.87 77.0643 331.961 76.8486 331.961 76.6236C331.961 76.3987 331.87 76.1831 331.708 76.024C331.547 75.865 331.327 75.7756 331.098 75.7756Z" fill="#3F3D56"/>
<path d="M435.478 362.568C435.001 362.568 428.95 362.188 428.95 361.72L434.615 333.475C434.615 333.251 434.706 333.035 434.867 332.876C435.029 332.717 435.249 332.627 435.478 332.627C435.707 332.627 435.926 332.717 436.088 332.876C436.25 333.035 436.341 333.251 436.341 333.475V361.72C436.341 361.945 436.25 362.161 436.088 362.32C435.926 362.479 435.707 362.568 435.478 362.568Z" fill="#3F3D56"/>
<path d="M500.718 68.0243C500.718 62.83 498.618 57.8484 494.879 54.1754C491.141 50.5024 486.07 48.439 480.783 48.439H257.67C266.691 48.439 375.085 54.7014 444.141 62.6062C455.654 63.9227 466.455 68.7608 475.017 76.4367C483.579 84.1126 489.469 94.2381 491.854 105.382C512.157 200.284 508.449 296.934 482.592 395.195C482.592 400.39 480.492 405.371 476.753 409.044C473.015 412.717 467.944 414.781 462.657 414.781H480.783C486.07 414.781 491.141 412.717 494.879 409.044C498.618 405.371 500.718 400.39 500.718 395.195C529.976 284.009 530.875 174.887 500.718 68.0243Z" fill="#E6E6E6"/>
<path d="M492.304 405.117L490.633 404.693C520.147 292.529 520.157 182.634 490.664 78.0557C487.594 72.5875 483.177 67.9629 477.818 64.605C472.458 61.2472 466.327 59.2632 459.986 58.8346L371.544 52.677L371.666 50.9851L460.108 57.1427C466.754 57.5922 473.178 59.676 478.791 63.2025C484.403 66.7289 489.022 71.585 492.225 77.324L492.3 77.5067C507.212 130.322 514.719 184.89 514.612 239.699C514.501 293.631 506.995 349.286 492.304 405.117Z" fill="white"/>
</g>
<defs>
<clipPath id="clip0_90_446">
<rect width="523" height="479" fill="white"/>
</clipPath>
</defs>
</svg>
