<svg width="309" height="232" viewBox="0 0 309 232" fill="none" xmlns="http://www.w3.org/2000/svg">
<g clip-path="url(#clip0_205_511)">
<path d="M51.2517 80.7635C50.5287 80.8262 49.8012 80.8408 49.0757 80.8071C48.952 80.7955 48.828 80.8261 48.7303 80.8925C48.6326 80.9588 48.569 81.0555 48.5533 81.1618L47.1654 90.1253C47.0586 90.776 46.7491 91.3896 46.2699 91.901C45.8748 92.308 45.5811 92.7806 45.407 93.2895C45.2329 93.7983 45.1822 94.3325 45.258 94.8589V110.085C45.258 110.085 45.1685 112.115 46.9803 112.115C49.1487 112.35 51.3428 112.35 53.5112 112.115C53.5112 112.115 54.9619 111.879 54.9619 110.005V95.0131C55.0725 94.49 55.0498 93.9525 54.8951 93.4378C54.7405 92.923 54.4577 92.4434 54.0664 92.0321C53.6032 91.5188 53.3038 90.9102 53.1978 90.2666L51.7561 81.1155C51.7397 81.0126 51.6785 80.919 51.5848 80.8536C51.4911 80.7882 51.372 80.756 51.2517 80.7635Z" fill="white"/>
<path d="M50.2394 112.548C49.1435 112.548 48.0486 112.489 46.9611 112.372C46.7181 112.377 46.4766 112.339 46.2516 112.259C46.0267 112.18 45.8232 112.062 45.654 111.911C44.9167 111.252 44.9576 110.123 44.9598 110.075L44.9596 94.8746C44.8826 94.3157 44.9388 93.7491 45.1248 93.2095C45.3107 92.67 45.6224 92.1687 46.0409 91.7363C46.4845 91.2617 46.7709 90.6927 46.8698 90.0894L48.2575 81.1278C48.2845 80.9554 48.3885 80.7989 48.5472 80.6914C48.706 80.5838 48.9072 80.5337 49.1082 80.5517C49.813 80.5837 50.5196 80.569 51.2219 80.5078L51.2302 80.5072C51.4261 80.4949 51.6202 80.5474 51.7728 80.6539C51.9254 80.7604 52.0252 80.913 52.0519 81.0806L53.4937 90.2322C53.5928 90.8308 53.8714 91.3968 54.3021 91.8743C54.717 92.3108 55.0174 92.8192 55.1828 93.3649C55.3482 93.9106 55.3747 94.4806 55.2604 95.0359V110.005C55.2604 112.068 53.5837 112.365 53.5668 112.368C52.4631 112.487 51.3518 112.548 50.2394 112.548ZM49.0352 81.0627C48.9908 81.0608 48.9472 81.0733 48.9128 81.0976C48.8785 81.1219 48.8559 81.1563 48.8495 81.1942L47.4612 90.1593C47.3471 90.8566 47.0157 91.5143 46.5022 92.0624C46.1332 92.4431 45.8586 92.8848 45.6956 93.3603C45.5326 93.8358 45.4845 94.3351 45.5543 94.8272L45.5566 94.8589V110.085C45.556 110.104 45.5243 111.056 46.0854 111.556C46.2015 111.658 46.3412 111.737 46.4954 111.79C46.6497 111.842 46.8149 111.865 46.9804 111.858L47.0176 111.86C49.1613 112.092 51.3303 112.092 53.474 111.86C53.5024 111.854 54.6634 111.626 54.6634 110.005L54.6683 94.967C54.7716 94.4806 54.7506 93.9807 54.6068 93.502C54.463 93.0232 54.1998 92.5772 53.8355 92.1949C53.3383 91.645 53.0166 90.9927 52.9024 90.3027L51.4604 81.15C51.4541 81.1125 51.4317 81.0783 51.3977 81.0542C51.3636 81.0301 51.3204 81.0178 51.2764 81.0196C50.5399 81.0831 49.7988 81.0978 49.0597 81.0638C49.0516 81.0631 49.0434 81.0627 49.0351 81.0627H49.0352Z" fill="#3F3D56"/>
<path d="M49.0607 95.1313H51.2606C52.1354 95.1313 52.9743 95.4305 53.5928 95.963C54.2114 96.4955 54.5589 97.2178 54.5589 97.9709V105.097C54.5589 105.85 54.2114 106.572 53.5928 107.105C52.9743 107.638 52.1354 107.937 51.2606 107.937H49.0607C48.186 107.937 47.3471 107.638 46.7285 107.105C46.1099 106.572 45.7625 105.85 45.7625 105.097V97.9709C45.7625 97.598 45.8478 97.2288 46.0135 96.8842C46.1793 96.5397 46.4222 96.2267 46.7285 95.963C47.0348 95.6993 47.3984 95.4901 47.7985 95.3474C48.1987 95.2047 48.6276 95.1313 49.0607 95.1313Z" fill="#468189"/>
<path d="M8.61748 226.014H15.7895L19.2016 202.198L8.61621 202.198L8.61748 226.014Z" fill="#9F616A"/>
<path d="M6.78809 223.999L20.9124 223.998H20.913C23.3002 223.998 25.5896 224.815 27.2776 226.268C28.9656 227.721 29.914 229.692 29.9141 231.747V231.999L6.78851 232L6.78809 223.999Z" fill="#2F2E41"/>
<path d="M4.10862 140.947C4.10862 140.947 1.0003 143.972 6.14719 155.763L5.24061 220.42L21.9201 220.14L25.5864 188.601L32.2617 142.576L4.10862 140.947Z" fill="#2F2E41"/>
<path d="M37.9822 149.886L37.7996 149.862C16.4619 147.06 0.360179 144.374 0.200024 144.347L0 144.314L5.5935 132.601C5.54931 131.377 4.33852 97.0075 6.65637 87.1328C8.9002 77.5735 19.4769 76.0069 20.6821 75.8595L21.8923 72.4073L37.1818 79.2569L39.8484 87.1582L40.39 108.814L37.9822 149.886Z" fill="#3F3D56"/>
<path d="M47.1908 105.314C46.5023 105.314 45.8212 105.436 45.1903 105.674C44.5595 105.911 43.9926 106.259 43.5253 106.694H17.8263L8.41284 108.419L9.95838 118.682L43.4446 112.482C43.999 113.021 44.7014 113.432 45.4877 113.677C46.274 113.922 47.1191 113.994 47.9459 113.886C48.7727 113.777 49.5548 113.493 50.2208 113.057C50.8868 112.622 51.4156 112.05 51.7587 111.393C52.1019 110.736 52.2485 110.016 52.1853 109.298C52.122 108.58 51.8509 107.887 51.3967 107.283C50.9424 106.678 50.3195 106.181 49.5848 105.837C48.8501 105.494 48.0271 105.313 47.1908 105.314H47.1908Z" fill="#9F616A"/>
<path d="M47.4138 68.5277C50.6948 63.3603 48.489 56.8813 42.4869 54.0565C36.4848 51.2317 28.9593 53.1308 25.6783 58.2983C22.3972 63.4657 24.6031 69.9447 30.6052 72.7695C36.6073 75.5943 44.1327 73.6952 47.4138 68.5277Z" fill="#9F616A"/>
<path d="M24.8972 54.8882L24.2968 53.8478L27.3181 52.5554C27.3181 52.5554 30.651 47.8864 36.6821 49.1985C42.7133 50.5106 45.4268 51.2959 45.4268 51.2959L48.4404 52.6014L46.9279 53.897L49.6413 54.6823L47.8285 55.4577L49.9377 56.5015L48.8023 61.852C48.8023 61.852 46.9164 57.7938 43.2909 59.3447C39.6654 60.8955 33.0338 58.543 33.0338 58.543L27.2724 68.1426C27.2724 68.1426 26.0838 64.7775 23.9646 65.6748C23.9646 65.6748 18.5506 58.2517 24.8972 54.8882Z" fill="#2F2E41"/>
<path d="M10.1229 120.606L7.18404 113.079L6.47314 87.9908L7.72535 84.4311C8.17607 83.15 8.92258 81.9603 9.92014 80.9335C10.9177 79.9066 12.1458 79.0637 13.5308 78.4553C14.9158 77.8469 16.4292 77.4855 17.9803 77.3927C19.5314 77.2999 21.0884 77.4777 22.5578 77.9154C24.0272 78.3531 25.3789 79.0416 26.5318 79.9399C27.6847 80.8381 28.6151 81.9274 29.2672 83.1426C29.9194 84.3578 30.2799 85.6739 30.3271 87.0119C30.3744 88.35 30.1073 89.6825 29.5421 90.9295L22.8303 105.737L23.1715 106.307L37.7125 106.206L42.8777 114.21L10.1229 120.606Z" fill="#3F3D56"/>
<path d="M155.608 117.513C156.151 117.199 156.607 116.785 156.944 116.303C157.281 115.82 157.491 115.279 157.559 114.719C157.627 114.159 157.552 113.592 157.338 113.06C157.125 112.528 156.778 112.042 156.323 111.637L163.491 99.414L155.281 100.234L149.733 111.716C148.994 112.419 148.581 113.331 148.571 114.279C148.561 115.228 148.955 116.146 149.68 116.861C150.404 117.576 151.407 118.037 152.5 118.157C153.592 118.277 154.698 118.048 155.608 117.513Z" fill="#FFB7B7"/>
<path d="M213.09 204.096L206.631 204.096L203.558 182.645L213.091 182.646L213.09 204.096Z" fill="#FFB7B7"/>
<path d="M214.738 209.487L193.91 209.486V209.259C193.91 207.408 194.764 205.633 196.284 204.324C197.804 203.015 199.866 202.28 202.016 202.28H202.017L214.738 202.28L214.738 209.487Z" fill="#2F2E41"/>
<path d="M177.789 204.096L171.329 204.096L168.256 182.645L177.79 182.646L177.789 204.096Z" fill="#FFB7B7"/>
<path d="M177.856 209.487L157.028 209.486V209.259C157.028 207.408 157.882 205.633 159.402 204.324C160.923 203.015 162.984 202.28 165.134 202.28H165.135L177.856 202.28L177.856 209.487Z" fill="#2F2E41"/>
<path d="M177.26 113.499L170.937 126.039L165.722 198.119L178.894 197.666L182.491 163.305L193.589 132.701L199.969 166.819L202.604 196.758L213.503 197.164L217.846 113.499H177.26Z" fill="#2F2E41"/>
<path d="M208.865 51.618L190.54 52.0127L179.781 56.7677L179.19 91.8494L172.48 116.07C172.48 116.07 214.405 118.555 220.201 114.926L213.351 87.2549L222.538 57.3508L208.865 51.618Z" fill="#468189"/>
<path d="M182.611 57.3492L180.905 56.3574C180.905 56.3574 173.837 58.181 171.748 66.2944C171.748 66.2944 170.15 70.365 169.449 73.1636C168.644 76.3736 150.88 105.859 150.88 105.859L161.516 108.486L181.014 81.3371L182.611 57.3492Z" fill="#468189"/>
<path d="M222.251 122.012C221.83 121.581 221.524 121.075 221.355 120.531C221.186 119.987 221.157 119.417 221.271 118.863C221.385 118.308 221.638 117.782 222.014 117.32C222.39 116.859 222.879 116.475 223.446 116.194L220.471 102.743L228.1 105.48L229.755 117.834C230.24 118.685 230.345 119.66 230.051 120.574C229.757 121.488 229.084 122.277 228.159 122.792C227.234 123.307 226.121 123.512 225.033 123.369C223.944 123.225 222.954 122.742 222.251 122.012Z" fill="#FFB7B7"/>
<path d="M219.781 57.7697L221.738 57.2213C221.738 57.2213 227.947 60.6522 227.357 68.9469C227.357 68.9469 227.589 73.2391 227.367 76.0957C227.112 79.3723 230.528 111.932 230.528 111.932H219.464L214.722 82.4464L219.781 57.7697Z" fill="#468189"/>
<path d="M213.363 36.8998C213.363 39.0628 212.618 41.1774 211.222 42.9759C209.826 44.7744 207.842 46.1762 205.521 47.004C203.2 47.8318 200.646 48.0483 198.181 47.6264C195.717 47.2044 193.454 46.1627 191.677 44.6332C189.901 43.1037 188.691 41.1549 188.201 39.0334C187.71 36.9119 187.962 34.7129 188.924 32.7145C189.885 30.716 191.513 29.008 193.602 27.8062C195.691 26.6045 198.147 25.963 200.66 25.963C204.02 25.9558 207.247 27.0983 209.629 29.1391C212.011 31.1799 213.355 33.9519 213.363 36.8453C213.363 36.8634 213.363 36.8816 213.363 36.8998Z" fill="#FFB7B7"/>
<path d="M187.999 22.2098C189.487 19.4548 192.367 19.9995 194.885 20.9333C198.075 20.3242 201.108 18.5008 204.544 19.5792C207.929 23.8178 219.294 22.5707 216.876 29.4713C216.873 31.1248 220.49 30.1624 219.859 32.8704C221.775 38.0821 212.942 47.9523 207.872 45.8738C209.126 43.8951 211.991 39.4009 207.646 38.9551C198.299 46.4423 206.681 24.6977 194.938 31.0214C191.049 34.0851 185.726 25.2742 187.999 22.2098Z" fill="#2F2E41"/>
<path d="M224.475 123.102C225.08 123.207 225.704 123.196 226.304 123.071C226.904 122.945 227.464 122.708 227.946 122.376C228.427 122.044 228.819 121.625 229.092 121.149C229.365 120.672 229.514 120.15 229.527 119.619L261.424 93.7715L254.247 88.8427L225.096 115.865C224.058 115.904 223.073 116.27 222.328 116.894C221.582 117.517 221.128 118.354 221.052 119.246C220.975 120.138 221.281 121.023 221.912 121.734C222.543 122.445 223.455 122.932 224.475 123.102Z" fill="#9F616A"/>
<path d="M256.904 97.9495L250.699 91.6884C250.522 91.5103 250.392 91.3015 250.318 91.0762C250.244 90.8509 250.226 90.6145 250.268 90.383C250.309 90.1516 250.408 89.9305 250.557 89.7349C250.707 89.5392 250.904 89.3736 251.134 89.2494L259.213 84.8953C260.277 84.1226 261.653 83.7445 263.04 83.8442C264.427 83.9438 265.711 84.5129 266.612 85.4267C267.512 86.3405 267.955 87.5245 267.843 88.7188C267.731 89.9132 267.073 91.0206 266.014 91.7981L259.77 97.963C259.592 98.1395 259.371 98.2807 259.123 98.3771C258.875 98.4734 258.606 98.5226 258.334 98.5213C258.062 98.52 257.793 98.4683 257.547 98.3696C257.3 98.2709 257.081 98.1277 256.904 97.9495V97.9495Z" fill="#CBCBCB"/>
<path d="M240.217 225.492L232.418 225.491L228.708 199.594L240.219 199.594L240.217 225.492Z" fill="#9F616A"/>
<path d="M242.206 232L217.06 231.999V231.725C217.06 229.491 218.091 227.347 219.927 225.767C221.762 224.187 224.252 223.299 226.847 223.299H226.848L242.207 223.299L242.206 232Z" fill="#2F2E41"/>
<path d="M302.556 225.492L294.758 225.491L291.048 199.594L302.558 199.594L302.556 225.492Z" fill="#9F616A"/>
<path d="M304.546 232L279.399 231.999V231.725C279.399 229.491 280.431 227.347 282.266 225.767C284.102 224.187 286.591 223.299 289.187 223.299H289.188L304.546 223.299L304.546 232Z" fill="#2F2E41"/>
<path d="M281.579 111.678L289.44 86.6726L279.242 81.7374H265.007L259.471 86.8371C259.471 86.8371 250.221 92.3779 252.46 98.517L256.071 112.5L250.547 134.708L222.715 167.939L216.127 200.58L242.062 206.433L270.106 158.891L283.704 211.533L309 210.438L300.283 146.609C300.283 146.609 297.798 127.165 284.774 115.024L281.579 111.678Z" fill="#2F2E41"/>
<path d="M297.814 133.802C298.252 133.428 298.59 132.976 298.804 132.477C299.017 131.978 299.101 131.446 299.049 130.916C298.998 130.387 298.812 129.873 298.505 129.412C298.198 128.951 297.778 128.554 297.273 128.248L291.174 92.8214L282.419 95.2013L291.183 129.321C290.642 130.085 290.445 130.993 290.63 131.873C290.815 132.754 291.369 133.545 292.187 134.097C293.004 134.65 294.028 134.925 295.065 134.87C296.103 134.816 297.08 134.435 297.814 133.802Z" fill="#9F616A"/>
<path d="M292.681 98.3814L283.184 99.3241C282.914 99.351 282.64 99.3273 282.381 99.2549C282.123 99.1824 281.885 99.0628 281.685 98.9041C281.485 98.7455 281.327 98.5516 281.222 98.3357C281.116 98.1197 281.066 97.8868 281.075 97.6527L281.383 89.4513C281.231 88.2603 281.635 87.0661 282.504 86.1307C283.374 85.1953 284.639 84.5949 286.022 84.4611C287.405 84.3274 288.793 84.6712 289.882 85.4172C290.971 86.1632 291.672 87.2506 291.831 88.4408L294.293 96.3407C294.363 96.5669 294.376 96.8035 294.331 97.0344C294.285 97.2653 294.182 97.4851 294.03 97.6787C293.877 97.8724 293.677 98.0354 293.444 98.1567C293.212 98.2779 292.951 98.3546 292.681 98.3814V98.3814Z" fill="#CBCBCB"/>
<path d="M256.206 74.6264V64.0908C256.206 60.3465 257.934 56.7556 261.009 54.108C264.084 51.4604 268.255 49.973 272.604 49.973C276.953 49.973 281.124 51.4604 284.199 54.108C287.274 56.7556 289.002 60.3465 289.002 64.0908V74.6264C289.001 75.1292 288.769 75.6112 288.356 75.9668C287.943 76.3223 287.383 76.5223 286.799 76.5228H258.409C257.825 76.5223 257.265 76.3223 256.852 75.9668C256.439 75.6112 256.207 75.1292 256.206 74.6264Z" fill="#2F2E41"/>
<path d="M275.001 75.0091C280.827 72.2672 282.968 65.9781 279.784 60.9621C276.599 55.9462 269.294 54.1027 263.468 56.8447C257.642 59.5867 255.5 65.8758 258.685 70.8917C261.87 75.9077 269.175 77.7511 275.001 75.0091Z" fill="#9F616A"/>
<path d="M252.327 64.9336C252.331 61.9728 253.698 59.1342 256.13 57.0405C258.562 54.9469 261.859 53.7692 265.298 53.7659H267.746C271.185 53.7692 274.482 54.9469 276.914 57.0405C279.346 59.1342 280.713 61.9728 280.717 64.9336V65.1444H275.545L273.781 60.8914L273.428 65.1444H270.755L269.865 62.9985L269.687 65.1444H252.327V64.9336Z" fill="#2F2E41"/>
<path d="M268.051 77.7076C267.809 77.4245 267.664 77.0881 267.633 76.7371C267.602 76.3862 267.688 76.035 267.879 75.7239C270.473 71.4767 274.104 63.6289 269.284 58.7891L268.937 58.4413H282.931V76.5289L270.219 78.4599C270.09 78.4795 269.96 78.4894 269.829 78.4895C269.482 78.4895 269.14 78.4186 268.831 78.2827C268.522 78.1468 268.255 77.9497 268.051 77.7076Z" fill="#2F2E41"/>
<path d="M139.434 87.339C139.256 87.4961 139.094 87.6649 138.947 87.844L116.147 87.3638L113.487 83.1792L105.627 85.8098L109.5 93.6117C109.813 94.242 110.355 94.7679 111.044 95.1105C111.734 95.453 112.534 95.5938 113.324 95.5116L139.084 92.8325C139.692 93.4948 140.519 93.9821 141.456 94.2296C142.393 94.4772 143.396 94.4732 144.33 94.2183C145.265 93.9633 146.087 93.4694 146.688 92.8023C147.288 92.1353 147.639 91.3266 147.692 90.4839C147.746 89.6411 147.5 88.8043 146.988 88.0847C146.476 87.3651 145.721 86.7968 144.825 86.4554C143.928 86.114 142.932 86.0157 141.969 86.1735C141.006 86.3314 140.122 86.7379 139.434 87.339H139.434Z" fill="#FFB7B7"/>
<path d="M65.1089 206.551H72.6057L76.1721 181.656L65.1077 181.656L65.1089 206.551Z" fill="#FFB7B7"/>
<path d="M63.1967 204.444L77.9606 204.444H77.9612C80.4565 204.444 82.8496 205.297 84.614 206.816C86.3785 208.335 87.3698 210.396 87.37 212.544V212.807L63.1971 212.808L63.1967 204.444Z" fill="#2F2E41"/>
<path d="M133.183 206.408L140.077 203.872L131.997 179.772L121.823 183.514L133.183 206.408Z" fill="#FFB7B7"/>
<path d="M130.463 205.117L144.04 200.123L144.04 200.123C146.335 199.279 148.925 199.254 151.241 200.055C153.556 200.855 155.408 202.414 156.388 204.39L156.509 204.632L134.279 212.808L130.463 205.117Z" fill="#2F2E41"/>
<path d="M101.549 92.732L102.091 100.295L86.2446 101.755L69.6635 103.283L74.5436 91.7984L101.549 92.732Z" fill="#FFB7B7"/>
<path d="M102.105 95.4458C101.926 95.3851 84.0274 89.391 73.0335 94.2922L72.7631 94.4128L70.5699 85.1187L69.3202 65.1368L77.4522 61.8286L79.6912 57.5107L94.9417 56.7337L98.0757 60.4339L108.746 63.4446L102.369 95.5355L102.105 95.4458Z" fill="#F8F1DE"/>
<path d="M102.666 77.4095L104.552 64.6489L108.847 63.5233L108.92 63.5463C109.019 63.5776 111.353 64.3469 111.992 67.1292C112.606 69.7998 117.225 86.4188 117.271 86.5865L117.318 86.7527L106.464 90.4913L102.666 77.4095Z" fill="#F8F1DE"/>
<path d="M127.599 202.033L142.046 199.481L118.955 144.625L111.053 125.914C111.053 125.914 106.04 110.912 103.776 105.107L102.409 97.3169L70.0569 100.4C70.0569 100.4 61.021 111.825 63.7661 130.446L62.5245 200.438L76.9718 201.076L89.073 130.486L110.312 169.183C110.312 169.183 117.006 185.696 121.796 189.275L127.599 202.033Z" fill="#2F2E41"/>
<path d="M83.0308 102.998C82.7764 102.993 82.5219 103.005 82.2697 103.034L67.1768 88.313L68.9324 83.7886L61.3479 80.615L57.3357 88.3644C57.0116 88.9905 56.932 89.6902 57.1091 90.3584C57.2862 91.0267 57.7102 91.6275 58.3176 92.0706L78.1139 106.512C77.9629 107.346 78.1104 108.2 78.5368 108.96C78.9632 109.72 79.6482 110.35 80.5007 110.766C81.3532 111.183 82.3329 111.366 83.3094 111.292C84.2859 111.217 85.2129 110.889 85.9672 110.35C86.7214 109.811 87.2672 109.087 87.5319 108.274C87.7965 107.461 87.7675 106.599 87.4488 105.8C87.13 105.002 86.5366 104.307 85.7474 103.806C84.9582 103.305 84.0106 103.023 83.0308 102.998Z" fill="#FFB7B7"/>
<path d="M59.9814 82.7959L65.8819 68.3263C66.545 66.6206 67.3759 65.5843 68.3517 65.2462C68.5439 65.1717 68.752 65.1324 68.9627 65.1307C69.1735 65.129 69.3824 65.165 69.5762 65.2363L72.2219 68.1142L74.6775 76.9954L68.3816 89.7456L59.9814 82.7959Z" fill="#F8F1DE"/>
<path d="M99.0367 53.7394H73.1338C72.601 53.7389 72.0902 53.5564 71.7134 53.2321C71.3367 52.9077 71.1247 52.4679 71.1241 52.0092V42.3967C71.1241 38.9805 72.7004 35.7043 75.5062 33.2887C78.3119 30.8731 82.1173 29.516 86.0853 29.516C90.0532 29.516 93.8586 30.8731 96.6644 33.2887C99.4702 35.7043 101.046 38.9805 101.046 42.3967V52.0092C101.046 52.4679 100.834 52.9077 100.457 53.2321C100.08 53.5564 99.5695 53.7389 99.0367 53.7394Z" fill="#2F2E41"/>
<path d="M89.1597 53.5156C95.2177 53.5156 100.129 49.2876 100.129 44.072C100.129 38.8564 95.2177 34.6283 89.1597 34.6283C83.1017 34.6283 78.1907 38.8564 78.1907 44.072C78.1907 49.2876 83.1017 53.5156 89.1597 53.5156Z" fill="#FFB7B7"/>
<path d="M104.586 43.3579H88.7469L88.5844 41.4002L87.7723 43.3579H85.3335L85.0116 39.4777L83.4021 43.3579H78.683V43.1657C78.6865 40.4643 79.9345 37.8744 82.1532 35.9642C84.3719 34.054 87.3801 32.9796 90.5178 32.9765H92.7509C95.8886 32.9796 98.8968 34.054 101.116 35.9642C103.334 37.8744 104.582 40.4643 104.586 43.1657L104.586 43.3579Z" fill="#2F2E41"/>
<path d="M88.6172 55.5338C88.498 55.5337 88.379 55.5246 88.2616 55.5067L76.6636 53.7449V37.2423H89.4307L89.1147 37.5596C84.7169 41.9753 88.0301 49.1355 90.3965 53.0105C90.5709 53.2943 90.6486 53.6147 90.6208 53.9349C90.593 54.2551 90.4607 54.562 90.2391 54.8203C90.0536 55.0412 89.8098 55.221 89.5279 55.3451C89.246 55.4691 88.9339 55.5338 88.6172 55.5338Z" fill="#2F2E41"/>
<path d="M227.548 95.201C226.825 95.2637 226.097 95.2783 225.372 95.2446C225.248 95.233 225.124 95.2636 225.026 95.33C224.929 95.3963 224.865 95.493 224.849 95.5993L223.461 104.563C223.355 105.213 223.045 105.827 222.566 106.339C222.171 106.746 221.877 107.218 221.703 107.727C221.529 108.236 221.478 108.77 221.554 109.296V124.523C221.554 124.523 221.465 126.553 223.276 126.553C225.445 126.787 227.639 126.787 229.807 126.553C229.807 126.553 231.258 126.316 231.258 124.443V109.451C231.369 108.928 231.346 108.39 231.191 107.875C231.037 107.361 230.754 106.881 230.363 106.47C229.899 105.956 229.6 105.348 229.494 104.704L228.052 95.553C228.036 95.4501 227.975 95.3565 227.881 95.2911C227.787 95.2257 227.668 95.1935 227.548 95.201Z" fill="white"/>
<path d="M226.535 126.985C225.44 126.985 224.345 126.927 223.257 126.81C223.014 126.815 222.773 126.776 222.548 126.697C222.323 126.618 222.119 126.499 221.95 126.349C221.213 125.69 221.254 124.561 221.256 124.513L221.256 109.312C221.179 108.753 221.235 108.187 221.421 107.647C221.607 107.107 221.918 106.606 222.337 106.174C222.781 105.699 223.067 105.13 223.166 104.527L224.554 95.5653C224.581 95.3929 224.685 95.2364 224.843 95.1289C225.002 95.0213 225.203 94.9712 225.404 94.9892C226.109 95.0212 226.816 95.0065 227.518 94.9453L227.526 94.9447C227.722 94.9324 227.916 94.9849 228.069 95.0914C228.221 95.1979 228.321 95.3505 228.348 95.5181L229.79 104.67C229.889 105.268 230.167 105.834 230.598 106.312C231.013 106.748 231.313 107.257 231.479 107.802C231.644 108.348 231.671 108.918 231.556 109.473V124.443C231.556 126.505 229.88 126.802 229.863 126.805C228.759 126.925 227.648 126.985 226.535 126.985ZM225.331 95.5002C225.287 95.4983 225.243 95.5108 225.209 95.5351C225.175 95.5594 225.152 95.5938 225.146 95.6317L223.757 104.597C223.643 105.294 223.312 105.952 222.798 106.5C222.429 106.881 222.155 107.322 221.992 107.798C221.829 108.273 221.78 108.773 221.85 109.265L221.853 109.296V124.523C221.852 124.541 221.82 125.494 222.381 125.994C222.498 126.095 222.637 126.175 222.791 126.227C222.946 126.279 223.111 126.302 223.276 126.296L223.314 126.298C225.457 126.529 227.626 126.529 229.77 126.298C229.798 126.292 230.959 126.064 230.959 124.443L230.964 109.405C231.068 108.918 231.047 108.418 230.903 107.939C230.759 107.461 230.496 107.015 230.132 106.632C229.634 106.082 229.313 105.43 229.198 104.74L227.756 95.5875C227.75 95.55 227.728 95.5158 227.694 95.4917C227.66 95.4676 227.616 95.4553 227.572 95.4571C226.836 95.5206 226.095 95.5353 225.356 95.5013C225.348 95.5006 225.339 95.5002 225.331 95.5002Z" fill="#3F3D56"/>
<path d="M225.357 109.569H227.557C228.432 109.569 229.27 109.868 229.889 110.401C230.508 110.933 230.855 111.655 230.855 112.408V119.535C230.855 120.288 230.508 121.01 229.889 121.543C229.27 122.075 228.431 122.374 227.557 122.374H225.357C224.482 122.374 223.643 122.075 223.025 121.543C222.406 121.01 222.059 120.288 222.059 119.535V112.408C222.059 111.655 222.406 110.933 223.025 110.401C223.643 109.868 224.482 109.569 225.357 109.569Z" fill="#468189"/>
<path d="M152.896 82.8552C152.173 82.9179 151.446 82.9325 150.72 82.8989C150.596 82.8872 150.472 82.9179 150.375 82.9842C150.277 83.0505 150.213 83.1472 150.198 83.2535L148.81 92.217C148.703 92.8677 148.394 93.4813 147.914 93.9928C147.519 94.3998 147.226 94.8724 147.051 95.3812C146.877 95.89 146.827 96.4242 146.902 96.9506V112.177C146.902 112.177 146.813 114.207 148.625 114.207C150.793 114.442 152.987 114.442 155.156 114.207C155.156 114.207 156.606 113.971 156.606 112.097V97.1048C156.717 96.5818 156.694 96.0442 156.54 95.5295C156.385 95.0148 156.102 94.5351 155.711 94.1238C155.248 93.6105 154.948 93.002 154.842 92.3584L153.401 83.2073C153.384 83.1044 153.323 83.0107 153.229 82.9453C153.135 82.8799 153.016 82.8477 152.896 82.8552Z" fill="white"/>
<path d="M151.884 114.639C150.788 114.639 149.693 114.581 148.606 114.464C148.363 114.469 148.121 114.43 147.896 114.351C147.671 114.272 147.468 114.153 147.298 114.003C146.561 113.344 146.602 112.215 146.604 112.167L146.604 96.9662C146.527 96.4073 146.583 95.8408 146.769 95.3012C146.955 94.7616 147.267 94.2604 147.685 93.828C148.129 93.3534 148.415 92.7843 148.514 92.1811L149.902 83.2195C149.929 83.0471 150.033 82.8906 150.192 82.783C150.35 82.6755 150.552 82.6254 150.753 82.6434C151.457 82.6754 152.164 82.6607 152.866 82.5995L152.875 82.5989C153.071 82.5866 153.265 82.6391 153.417 82.7456C153.57 82.8521 153.67 83.0047 153.696 83.1723L155.138 92.3239C155.237 92.9225 155.516 93.4885 155.947 93.966C156.361 94.4025 156.662 94.9109 156.827 95.4566C156.993 96.0023 157.019 96.5723 156.905 97.1276V112.097C156.905 114.159 155.228 114.457 155.211 114.459C154.108 114.579 152.996 114.639 151.884 114.639ZM150.68 83.1543C150.635 83.1525 150.592 83.165 150.557 83.1893C150.523 83.2136 150.5 83.248 150.494 83.2858L149.106 92.251C148.992 92.9483 148.66 93.6059 148.147 94.1541C147.778 94.5347 147.503 94.9764 147.34 95.452C147.177 95.9275 147.129 96.4268 147.199 96.9189L147.201 96.9505V112.177C147.2 112.196 147.169 113.148 147.73 113.648C147.846 113.75 147.986 113.829 148.14 113.881C148.294 113.933 148.459 113.957 148.625 113.95L148.662 113.952C150.806 114.184 152.975 114.184 155.118 113.952C155.147 113.946 156.308 113.718 156.308 112.097L156.313 97.0587C156.416 96.5723 156.395 96.0724 156.251 95.5936C156.107 95.1149 155.844 94.6689 155.48 94.2866C154.983 93.7367 154.661 93.0844 154.547 92.3944L153.105 83.2417C153.098 83.2041 153.076 83.17 153.042 83.1459C153.008 83.1218 152.965 83.1094 152.921 83.1113C152.184 83.1748 151.443 83.1895 150.704 83.1555C150.696 83.1547 150.688 83.1544 150.68 83.1543Z" fill="#3F3D56"/>
<path d="M150.705 97.223H152.905C153.78 97.223 154.619 97.5222 155.237 98.0547C155.856 98.5873 156.203 99.3095 156.203 100.063V107.189C156.203 107.942 155.856 108.664 155.237 109.197C154.619 109.729 153.78 110.028 152.905 110.028H150.705C149.83 110.028 148.991 109.729 148.373 109.197C147.754 108.664 147.407 107.942 147.407 107.189V100.063C147.407 99.3096 147.754 98.5873 148.373 98.0547C148.991 97.5222 149.83 97.223 150.705 97.223Z" fill="#468189"/>
<path d="M140.243 69.7831C139.52 69.8458 138.793 69.8604 138.067 69.8268C137.944 69.8152 137.82 69.8458 137.722 69.9121C137.624 69.9785 137.561 70.0752 137.545 70.1814L136.157 79.1449C136.05 79.7956 135.741 80.4092 135.261 80.9207C134.866 81.3277 134.573 81.8003 134.399 82.3091C134.225 82.8179 134.174 83.3521 134.25 83.8785V99.1047C134.25 99.1047 134.16 101.135 135.972 101.135C138.14 101.369 140.334 101.369 142.503 101.135C142.503 101.135 143.953 100.898 143.953 99.025V84.0327C144.064 83.5097 144.041 82.9721 143.887 82.4574C143.732 81.9427 143.449 81.463 143.058 81.0518C142.595 80.5385 142.295 79.9299 142.189 79.2863L140.748 70.1352C140.731 70.0323 140.67 69.9386 140.576 69.8732C140.483 69.8078 140.364 69.7756 140.243 69.7831Z" fill="white"/>
<path d="M139.231 101.567C138.135 101.567 137.04 101.509 135.953 101.392C135.71 101.397 135.468 101.358 135.243 101.279C135.018 101.2 134.815 101.081 134.646 100.931C133.908 100.272 133.949 99.1427 133.951 99.0949L133.951 83.8942C133.874 83.3353 133.93 82.7688 134.116 82.2292C134.302 81.6896 134.614 81.1883 135.032 80.756C135.476 80.2814 135.763 79.7123 135.861 79.1091L137.249 70.1475C137.276 69.9751 137.38 69.8185 137.539 69.711C137.698 69.6035 137.899 69.5534 138.1 69.5714C138.805 69.6034 139.511 69.5887 140.213 69.5275L140.222 69.5268C140.418 69.5146 140.612 69.5671 140.764 69.6736C140.917 69.7801 141.017 69.9327 141.043 70.1003L142.485 79.2519C142.584 79.8504 142.863 80.4164 143.294 80.894C143.709 81.3304 144.009 81.8389 144.174 82.3846C144.34 82.9303 144.366 83.5003 144.252 84.0556V99.025C144.252 101.087 142.575 101.385 142.558 101.387C141.455 101.507 140.343 101.567 139.231 101.567ZM138.027 70.0823C137.982 70.0805 137.939 70.0929 137.904 70.1172C137.87 70.1415 137.848 70.176 137.841 70.2138L136.453 79.1789C136.339 79.8762 136.007 80.5339 135.494 81.0821C135.125 81.4627 134.85 81.9044 134.687 82.3799C134.524 82.8555 134.476 83.3547 134.546 83.8469L134.548 83.8785V99.1047C134.548 99.1236 134.516 100.076 135.077 100.576C135.193 100.678 135.333 100.757 135.487 100.809C135.641 100.861 135.806 100.885 135.972 100.878L136.009 100.88C138.153 101.112 140.322 101.112 142.466 100.88C142.494 100.874 143.655 100.646 143.655 99.025L143.66 83.9867C143.763 83.5003 143.742 83.0003 143.598 82.5216C143.455 82.0429 143.191 81.5969 142.827 81.2146C142.33 80.6646 142.008 80.0123 141.894 79.3224L140.452 70.1697C140.446 70.1321 140.423 70.098 140.389 70.0738C140.355 70.0497 140.312 70.0374 140.268 70.0393C139.531 70.1027 138.79 70.1175 138.051 70.0835C138.043 70.0827 138.035 70.0823 138.027 70.0823Z" fill="#3F3D56"/>
<path d="M138.052 84.1509H140.252C141.127 84.1509 141.966 84.4501 142.584 84.9827C143.203 85.5152 143.55 86.2375 143.55 86.9906V94.1167C143.55 94.8698 143.203 95.5921 142.584 96.1246C141.966 96.6572 141.127 96.9563 140.252 96.9563H138.052C137.178 96.9563 136.339 96.6572 135.72 96.1246C135.102 95.5921 134.754 94.8698 134.754 94.1167V86.9906C134.754 86.2375 135.102 85.5152 135.72 84.9827C136.339 84.4501 137.178 84.1509 138.052 84.1509Z" fill="#468189"/>
<path d="M23.6977 25.781C29.521 25.781 34.2417 21.7167 34.2417 16.7032C34.2417 11.6896 29.521 7.62537 23.6977 7.62537C17.8744 7.62537 13.1537 11.6896 13.1537 16.7032C13.1537 21.7167 17.8744 25.781 23.6977 25.781Z" fill="#F0F0F0"/>
<path d="M266.632 18.1556C272.455 18.1556 277.176 14.0913 277.176 9.0778C277.176 4.06427 272.455 0 266.632 0C260.809 0 256.088 4.06427 256.088 9.0778C256.088 14.0913 260.809 18.1556 266.632 18.1556Z" fill="#F0F0F0"/>
<path d="M146.008 41.0317C150.201 41.0317 153.6 38.1054 153.6 34.4956C153.6 30.8859 150.201 27.9596 146.008 27.9596C141.816 27.9596 138.417 30.8859 138.417 34.4956C138.417 38.1054 141.816 41.0317 146.008 41.0317Z" fill="#F0F0F0"/>
</g>
<defs>
<clipPath id="clip0_205_511">
<rect width="309" height="232" fill="white"/>
</clipPath>
</defs>
</svg>
