<svg width="309" height="228" viewBox="0 0 309 228" fill="none" xmlns="http://www.w3.org/2000/svg">
<g clip-path="url(#clip0_46_817)">
<path d="M39.458 36.4555C49.1374 36.4555 56.984 28.2947 56.984 18.2278C56.984 8.16085 49.1374 0 39.458 0C29.7787 0 21.932 8.16085 21.932 18.2278C21.932 28.2947 29.7787 36.4555 39.458 36.4555Z" fill="#FF6584"/>
<path d="M245.311 186.537C239.201 186.537 233.289 184.283 228.627 180.176C223.965 176.069 220.854 170.376 219.847 164.108L219.827 163.976L219.909 163.873C221.279 162.164 222.43 160.278 223.334 158.261C222.335 159.395 221.204 160.393 219.966 161.233L219.553 161.519L219.529 161.004C219.508 160.559 219.498 160.118 219.498 159.691C219.496 157.184 219.828 154.689 220.486 152.278C223.483 141.323 223.995 129.559 222.009 117.312C221.67 115.213 221.499 113.087 221.5 110.958C221.503 101.96 224.585 93.2564 230.196 86.4065C235.806 79.5566 243.578 75.0075 252.119 73.5737C260.66 72.1398 269.413 73.915 276.811 78.5812C284.208 83.2474 289.767 90.5 292.492 99.0402L292.575 99.3006L292.331 99.4034C290.496 100.211 288.549 100.714 286.564 100.891C288.662 101.393 290.815 101.609 292.966 101.531L293.194 101.523L293.249 101.753C293.97 104.763 294.335 107.855 294.335 110.958L294.333 111.294C294.327 113.67 294.801 116.021 295.727 118.194C296.652 120.366 298.008 122.312 299.704 123.903C302.462 126.513 304.643 129.712 306.098 133.282C307.553 136.852 308.247 140.707 308.133 144.583C308.018 148.458 307.098 152.262 305.435 155.732C303.772 159.202 301.406 162.257 298.5 164.685L298.365 164.798L298.208 164.724C294.884 163.155 292.462 161.446 290.691 159.407C291.872 162.024 293.461 164.42 295.395 166.497L295.645 166.765L295.335 166.953C291.388 169.347 286.901 170.607 282.332 170.605L282.202 170.605C282.156 170.604 282.11 170.604 282.064 170.604C275.075 170.604 268.451 173.415 263.87 178.329C261.458 180.913 258.573 182.971 255.386 184.38C252.2 185.79 248.774 186.523 245.311 186.537Z" fill="#F2F2F2"/>
<path d="M236.176 228.838C236.064 228.837 235.955 228.795 235.871 228.719C235.786 228.642 235.731 228.537 235.715 228.421C235.695 228.277 233.757 213.735 235.498 194.408C237.106 176.559 242.27 150.85 257.739 129.736C257.776 129.685 257.822 129.643 257.875 129.611C257.928 129.579 257.986 129.558 258.047 129.549C258.108 129.541 258.169 129.545 258.228 129.561C258.287 129.577 258.343 129.606 258.392 129.644C258.44 129.683 258.481 129.731 258.512 129.786C258.543 129.841 258.563 129.902 258.571 129.965C258.579 130.028 258.575 130.092 258.56 130.153C258.544 130.215 258.517 130.273 258.48 130.323C243.144 151.255 238.022 176.775 236.426 194.498C234.694 213.713 236.618 228.141 236.638 228.285C236.647 228.353 236.642 228.423 236.623 228.49C236.604 228.557 236.572 228.618 236.528 228.671C236.484 228.723 236.43 228.765 236.369 228.794C236.309 228.823 236.243 228.838 236.176 228.838Z" fill="#3F3D56"/>
<path d="M243.909 157.655C243.81 157.655 243.714 157.622 243.635 157.562C243.555 157.502 243.496 157.417 243.465 157.32C243.435 157.223 243.435 157.118 243.465 157.021C243.496 156.923 243.555 156.838 243.634 156.778C248.042 153.675 252.804 151.154 257.81 149.273C265.63 146.295 277.523 143.596 289.766 147.648C289.825 147.668 289.879 147.699 289.925 147.74C289.972 147.781 290.011 147.831 290.039 147.888C290.067 147.944 290.084 148.006 290.089 148.069C290.094 148.133 290.088 148.196 290.069 148.257C290.05 148.318 290.021 148.374 289.981 148.423C289.942 148.471 289.893 148.511 289.839 148.54C289.785 148.57 289.725 148.588 289.664 148.593C289.603 148.598 289.542 148.591 289.484 148.572C277.491 144.602 265.814 147.257 258.13 150.183C253.205 152.032 248.519 154.511 244.182 157.562C244.103 157.622 244.007 157.655 243.909 157.655Z" fill="#3F3D56"/>
<path d="M54.6332 192.854C50.2871 192.846 43.4447 193.21 39.7176 195.257C36.8535 196.83 34.2452 198.862 31.9883 201.278C31.1184 202.213 30.2944 203.194 29.5196 204.215C27.3763 196.589 27.1268 188.522 28.7945 180.768C28.9118 180.246 28.8733 179.699 28.6841 179.201C28.4949 178.702 28.164 178.275 27.7356 177.977C27.3072 177.679 26.8016 177.524 26.2863 177.533C25.771 177.541 25.2704 177.713 24.8514 178.025C18.7966 182.618 14.9255 190.4 13.9841 198.273C12.7846 208.305 15.6091 218.414 19.5346 227.664L19.5334 227.669C19.5261 227.711 19.5151 227.756 19.5043 227.801C19.4897 227.869 19.4716 227.937 19.4571 228.005C19.4316 228.122 19.4027 228.243 19.3771 228.36L20.0127 228.33C20.0491 228.349 20.0855 228.364 20.1216 228.383H36.0417C36.2527 228.144 36.4492 227.892 36.6302 227.628C38.3918 225.115 39.1218 221.712 40.0118 218.641C40.6563 216.417 41.4626 214.247 42.4236 212.151C44.8434 206.884 48.1823 202.13 52.2705 198.132C52.4012 198.003 52.5357 197.875 52.6701 197.75C53.3548 197.095 54.4162 196.219 55.4534 195.397C55.68 195.218 55.847 194.969 55.9307 194.686C56.0145 194.403 56.0108 194.1 55.9203 193.819C55.8298 193.539 55.6569 193.295 55.426 193.121C55.1951 192.948 54.9179 192.855 54.6332 192.854Z" fill="#F2F2F2"/>
<path d="M162.122 36.7359C162.497 37.8249 162.445 39.0234 161.978 40.0729C161.51 41.1224 160.665 41.9389 159.624 42.3462C159.394 42.4357 159.157 42.5037 158.915 42.5496L156.509 57.871L150.865 52.4513L154.015 38.7328C153.899 37.5768 154.224 36.4195 154.921 35.5111C155.619 34.6028 156.632 34.0163 157.741 33.8785C158.675 33.7672 159.617 33.9894 160.413 34.5086C161.209 35.0279 161.812 35.8133 162.122 36.7359L162.122 36.7359Z" fill="#9E616A"/>
<path d="M120.472 71.4523C120.472 71.4523 124.852 65.4331 140.747 65.598L149.769 62.1888L151.831 42.5314L159.047 44.3185L158.016 68.6222L142.552 77.9147L122.277 82.2036L120.472 71.4523Z" fill="#468189"/>
<path d="M96.0473 219.643L100.211 221.488L109.037 205.663L102.892 202.939L96.0473 219.643Z" fill="#9E616A"/>
<path d="M130.456 223.741L134.982 223.74L137.135 205.583L130.455 205.584L130.456 223.741Z" fill="#9E616A"/>
<path d="M130.297 228.651L144.215 228.651V228.468C144.215 226.973 143.644 225.54 142.628 224.484C141.612 223.427 140.234 222.833 138.798 222.833H138.797L136.255 220.827L131.511 222.834L130.296 222.834L130.297 228.651Z" fill="#2F2E41"/>
<path d="M93.5156 222.786L106.32 228.461L106.389 228.293C106.952 226.918 106.967 225.367 106.431 223.981C105.895 222.594 104.851 221.486 103.529 220.9L103.529 220.9L101.946 218.018L96.8262 217.93L95.7085 217.434L93.5156 222.786Z" fill="#2F2E41"/>
<path d="M134.896 116.281L141.774 159.844L139.902 166.335L142.359 170.933L138.752 211.309L140.216 214.662L136.125 217.286H127.799L127.357 180.733L125.301 175.366V172.409L121.115 150.119L120.344 175.616L119.126 180.991L120.149 184.818L118.812 187.499L107.358 213.079H98.023L98.745 207.294C97.0725 206.413 101.256 203.839 101.658 201.935L100.284 198.718L101.658 192.642L102.919 180.77L101.589 155.709L102.215 121.961L113.135 113.276L134.896 116.281Z" fill="#2F2E41"/>
<path d="M118.144 58.9126C123.355 58.9126 127.578 54.5197 127.578 49.1009C127.578 43.682 123.355 39.2891 118.144 39.2891C112.934 39.2891 108.71 43.682 108.71 49.1009C108.71 54.5197 112.934 58.9126 118.144 58.9126Z" fill="#9E616A"/>
<path d="M101.752 134.351C102.016 133.858 102.173 133.311 102.212 132.748C102.252 132.185 102.171 131.62 101.978 131.093C101.784 130.565 101.482 130.088 101.092 129.696C100.702 129.303 100.234 129.004 99.7207 128.82L99.6984 115.099L93.9816 119.035L94.8792 131.461C94.6389 132.378 94.7303 133.355 95.1362 134.206C95.542 135.058 96.2341 135.725 97.0812 136.081C97.9283 136.437 98.8717 136.458 99.7325 136.139C100.593 135.82 101.312 135.184 101.752 134.351Z" fill="#9E616A"/>
<path d="M101.223 73.6401L98.6693 71.0798L96.7932 72.4882C96.7932 72.4882 94.9472 74.792 93.4705 81.7034C91.9937 88.6148 93.4705 126.628 93.4705 126.628L101.593 125.476L100.485 105.509L103.808 88.6148L101.223 73.6401Z" fill="#468189"/>
<path d="M97.4521 71.7043L106.057 67.4295L111.899 61.7939L122.552 61.711L125.988 66.3573L135.061 69.5624L133.549 102.098L134.58 104.6C134.58 104.6 133.861 105.275 133.533 105.652C133.205 106.029 133.987 109.189 133.987 109.189L134.427 112.627L133.205 113.535L134.794 115.487L135.188 118.564C135.188 118.564 107.451 111.394 102.21 123.272C101.933 123.9 102.615 117.766 102.615 117.766L103.297 113.276L102.62 109.246L101.589 108.174L103.318 106.376L102.21 97.8429L97.4521 71.7043Z" fill="#468189"/>
<path d="M187.266 219.45H182.16L179.73 198.966H187.266V219.45Z" fill="#FFB6B6"/>
<path d="M189.962 228.651H186.3L185.646 225.055L183.972 228.651H174.26C173.794 228.651 173.341 228.496 172.966 228.21C172.591 227.923 172.314 227.518 172.176 227.056C172.037 226.594 172.044 226.098 172.196 225.64C172.348 225.182 172.636 224.787 173.019 224.512L180.775 218.941V215.306L188.933 215.812L189.962 228.651Z" fill="#2F2E41"/>
<path d="M236.927 208.913L232.534 211.622L220.398 195.292L226.88 191.294L236.927 208.913Z" fill="#FFB6B6"/>
<path d="M243.757 215.397L240.608 217.34L238.282 214.594L238.606 218.575L230.252 223.727C229.852 223.974 229.386 224.082 228.923 224.034C228.459 223.986 228.023 223.786 227.677 223.461C227.331 223.137 227.094 222.707 227 222.233C226.906 221.758 226.96 221.265 227.155 220.825L231.094 211.919L229.311 208.793L236.576 204.9L243.757 215.397Z" fill="#2F2E41"/>
<path d="M184.987 88.4761L182.506 104.928L206.079 105.251L202.978 89.444L184.987 88.4761Z" fill="#FFB6B6"/>
<path d="M182.415 104.72L175.682 121.703L175.192 167.119L180.937 210.482H187.296L189.901 167.826L196.309 138.639L202.628 169.166L222.278 199.045H231.934L214.182 166.119L212.128 130.252C212.128 130.252 213.408 115.036 206.855 106.057L205.26 101.264L182.415 104.72Z" fill="#2F2E41"/>
<path d="M215.395 117.119C214.739 116.933 214.13 116.6 213.611 116.143C213.091 115.685 212.675 115.115 212.391 114.472C212.107 113.829 211.961 113.13 211.965 112.422C211.969 111.715 212.122 111.017 212.414 110.377L202.385 76.3733L209.762 74.8525L218.933 108.184C219.934 108.764 220.695 109.706 221.072 110.83C221.449 111.955 221.417 113.185 220.98 114.286C220.544 115.388 219.735 116.284 218.705 116.807C217.676 117.329 216.498 117.44 215.395 117.119V117.119Z" fill="#FFB6B6"/>
<path d="M203.498 100.421L185.874 91.8746C185.41 91.8643 184.961 91.696 184.598 91.3954C184.234 91.0948 183.975 90.6785 183.86 90.2102C182.989 86.6231 181.073 82.6358 182.089 73.3248C182.29 71.5211 182.836 69.7775 183.696 68.1973C184.556 66.617 185.712 65.2322 187.096 64.1247C188.479 63.0173 190.062 62.2097 191.751 61.7497C193.44 61.2897 195.201 61.1867 196.929 61.4468C198.751 61.7182 200.498 62.3873 202.055 63.4103C203.611 64.4333 204.942 65.787 205.96 67.3826C206.979 68.9782 207.661 70.7797 207.963 72.6689C208.264 74.558 208.178 76.4922 207.711 78.3444C205.665 86.4231 205.884 95.0619 205.651 98.3823C205.617 98.8624 205.432 99.3175 205.125 99.6782C204.819 100.039 204.407 100.285 203.953 100.38C203.818 100.407 203.681 100.422 203.543 100.422C203.528 100.422 203.513 100.422 203.498 100.421Z" fill="#468189"/>
<path d="M165.552 43.3118C165.454 43.5394 165.339 43.7586 165.208 43.9673L173.635 64.5186L178.815 65.1795L178.878 73.4403L169.598 73.1972C168.849 73.1775 168.125 72.9055 167.537 72.4219C166.949 71.9384 166.527 71.2694 166.335 70.5154L160.089 45.9411C159.204 45.6666 158.421 45.1184 157.843 44.3695C157.265 43.6205 156.92 42.7064 156.854 41.7485C156.787 40.7906 157.003 39.8345 157.472 39.0073C157.941 38.1801 158.641 37.521 159.479 37.1176C160.317 36.7143 161.253 36.5858 162.163 36.7494C163.073 36.9129 163.914 37.3607 164.573 38.0331C165.232 38.7055 165.679 39.5708 165.854 40.5137C166.028 41.4567 165.923 42.4327 165.552 43.3118V43.3118Z" fill="#FFB6B6"/>
<path d="M174.484 63.7861C174.694 63.5929 174.941 63.449 175.209 63.3643C175.477 63.2795 175.759 63.2559 176.037 63.295L185.732 64.6601C187.165 64.6407 188.547 65.2132 189.575 66.2519C190.603 67.2907 191.192 68.7111 191.215 70.2015C191.237 71.6919 190.691 73.1308 189.695 74.2026C188.699 75.2744 187.335 75.8917 185.902 75.919L176.212 77.5437C175.935 77.59 175.652 77.5738 175.382 77.4962C175.112 77.4186 174.862 77.2814 174.647 77.0939C174.433 76.9064 174.26 76.6731 174.14 76.4098C174.02 76.1465 173.956 75.8594 173.953 75.5681L173.827 65.3299C173.823 65.0386 173.88 64.7498 173.993 64.4834C174.107 64.217 174.274 63.9791 174.484 63.7861Z" fill="#468189"/>
<path d="M201.936 84.9866C201.688 84.851 201.471 84.6614 201.3 84.4306C201.129 84.1999 201.008 83.9335 200.945 83.6497L198.743 73.7358C198.219 72.3486 198.245 70.8019 198.816 69.4347C199.386 68.0676 200.455 66.9915 201.787 66.4425C203.12 65.8935 204.607 65.9162 205.923 66.5058C207.239 67.0954 208.277 68.2037 208.808 69.5877L213.697 78.4392C213.837 78.6918 213.922 78.9727 213.948 79.2628C213.974 79.5529 213.939 79.8454 213.846 80.1203C213.754 80.3952 213.605 80.646 213.41 80.8558C213.216 81.0655 212.981 81.2292 212.72 81.3358L203.557 85.0797C203.296 85.1864 203.016 85.2333 202.737 85.2172C202.457 85.2011 202.184 85.1225 201.936 84.9866Z" fill="#468189"/>
<path d="M201.545 57.9507C206.375 55.2046 208.15 48.9061 205.51 43.8825C202.87 38.859 196.814 37.0128 191.984 39.7589C187.153 42.505 185.378 48.8035 188.019 53.8271C190.659 58.8506 196.715 60.6968 201.545 57.9507Z" fill="#FFB6B6"/>
<path d="M189.908 44.6876C187.769 44.6751 185.631 44.6626 183.492 44.6501C183.34 43.1342 183.989 41.6262 184.934 40.4616C185.879 39.297 187.103 38.42 188.311 37.5577C189.538 36.6822 190.809 35.7869 192.267 35.4809C193.489 35.2245 194.753 35.4024 195.987 35.581C197.625 35.8178 199.263 36.0546 200.9 36.2914C202.698 36.5514 204.578 36.8454 206.038 37.9666C208.013 39.4828 207.508 42.9826 209.402 44.6053C215.124 49.5062 212.807 53.7861 212.914 58.2533C206 59.0076 199.086 59.7618 192.172 60.5161C191.421 60.6505 190.653 60.6273 189.911 60.4478C189.185 60.2169 188.519 59.5918 188.466 58.8041C188.406 57.9242 189.077 57.2041 189.622 56.5284C190.922 54.853 191.702 52.8067 191.86 50.66C192.017 48.5134 191.544 46.3676 190.504 44.5066L189.908 44.6876Z" fill="#2F2E41"/>
<path d="M115.731 58.4322C115.691 58.3399 115.65 58.2473 115.61 58.1544C115.626 58.1549 115.641 58.1572 115.656 58.1576L115.731 58.4322Z" fill="#2F2E41"/>
<path d="M108.448 39.7353C108.896 39.2958 109.478 39.034 110.093 38.9957C110.703 39.0161 111.321 39.5892 111.195 40.2102C112.316 38.1468 114.099 36.5598 116.233 35.7277C118.366 34.8957 120.713 34.8718 122.862 35.6603C124.378 36.2166 125.865 37.3296 126.213 38.9621C126.247 39.3907 126.37 39.8066 126.574 40.181C126.75 40.3811 126.979 40.5233 127.232 40.59C127.484 40.6566 127.751 40.6449 127.997 40.5561L128.012 40.5515C128.097 40.5216 128.188 40.5186 128.274 40.5431C128.36 40.5676 128.437 40.6183 128.495 40.6888C128.553 40.7593 128.589 40.8462 128.599 40.9384C128.609 41.0306 128.592 41.1238 128.551 41.206L128.122 42.0381C128.663 42.1635 129.225 42.151 129.76 42.0019C129.849 41.9776 129.943 41.9826 130.029 42.016C130.115 42.0495 130.189 42.1099 130.241 42.1888C130.292 42.2678 130.319 42.3615 130.318 42.4571C130.317 42.5526 130.287 42.6454 130.233 42.7227C129.52 43.7372 128.589 44.5645 127.514 45.139C126.44 45.7135 125.251 46.0191 124.043 46.0317C122.329 46.0208 120.597 45.4064 118.929 45.8163C118.284 45.9749 117.681 46.2818 117.164 46.7144C116.648 47.147 116.231 47.6944 115.944 48.3164C115.658 48.9384 115.509 49.6192 115.508 50.3089C115.508 50.9986 115.656 51.6796 115.941 52.3021C115.429 51.7191 114.438 51.8571 113.914 52.4287C113.672 52.7347 113.494 53.089 113.389 53.4696C113.285 53.8503 113.257 54.2491 113.307 54.6415C113.446 55.8435 113.79 57.0102 114.32 58.0878C112.293 58.023 110.334 57.3127 108.708 56.0528C107.081 54.793 105.866 53.0443 105.225 51.0431C104.585 49.0418 104.551 46.8844 105.127 44.8622C105.703 42.84 106.862 41.0504 108.448 39.7353V39.7353Z" fill="#2F2E41"/>
<path d="M71.0858 4.24256C62.5919 3.04849 52.8947 7.82331 50.6933 16.4386C50.1385 14.9068 49.1298 13.5981 47.813 12.7015C46.4963 11.805 44.9395 11.367 43.3678 11.4509C41.796 11.5348 40.2905 12.1362 39.0689 13.1682C37.8473 14.2002 36.9727 15.6094 36.5716 17.1922L37.544 17.9166C55.7462 22.0104 74.5882 21.9218 92.754 17.657C86.8457 11.199 79.5796 5.43662 71.0858 4.24256Z" fill="#F0F0F0"/>
<path d="M34.6591 28.5462C26.1653 27.3522 16.4681 32.127 14.2666 40.7422C13.7118 39.2104 12.7032 37.9017 11.3864 37.0052C10.0696 36.1086 8.5129 35.6707 6.94112 35.7546C5.36934 35.8384 3.86389 36.4398 2.64226 37.4719C1.42063 38.5039 0.546086 39.9131 0.144958 41.4959L1.11738 42.2202C19.3195 46.3141 38.1616 46.2255 56.3274 41.9606C50.4191 35.5026 43.153 29.7403 34.6591 28.5462Z" fill="#F0F0F0"/>
</g>
<defs>
<clipPath id="clip0_46_817">
<rect width="308" height="229" fill="white" transform="translate(0.144958)"/>
</clipPath>
</defs>
</svg>
