<svg width="739" height="571" viewBox="0 0 739 571" fill="none" xmlns="http://www.w3.org/2000/svg">
<g clip-path="url(#clip0_32_1228)">
<path d="M198.441 536.558L210.9 540.594L233.585 497.86L215.198 491.902L198.441 536.558Z" fill="#A0616A"/>
<path d="M214.654 542.981L217.6 535.132L214.255 534.257L200.647 530.67L197.495 529.846L185.271 555.367L184.616 556.735L193.462 559.602L194.272 558.295L197.944 552.35L198.874 559.786L199.075 561.421L222.528 569.022C223.926 569.466 225.457 569.379 226.787 568.781C228.118 568.183 229.14 567.121 229.633 565.826C232.235 561.85 216.217 546.242 214.654 542.981Z" fill="#2F2E41"/>
<path d="M110.333 545.605H123.527L129.804 498.311L110.33 498.312L110.333 545.605Z" fill="#A0616A"/>
<path d="M127.917 546.709V538.396L124.449 538.593L110.329 539.371L107.061 539.557L104.563 567.396L104.429 568.888H113.797L114.099 567.406L115.459 560.669L118.972 567.406L119.742 568.888H144.58C146.058 568.879 147.473 568.329 148.517 567.357C149.561 566.385 150.15 565.069 150.157 563.696C151.205 559.146 130.549 549.31 127.917 546.709Z" fill="#2F2E41"/>
<path d="M204.494 248.841L225.216 274.363C225.216 274.363 213.772 273.625 225.216 278.248C236.66 282.871 236.984 281.237 236.822 286.839C236.66 292.442 224.994 291.604 230.827 297.34C236.66 303.076 275.731 379.334 275.731 379.334C275.731 379.334 243.715 489.741 239.615 494.245C235.515 498.749 230.938 494.495 235.515 498.749C240.093 503.003 245.815 497.686 240.093 503.003C234.371 508.32 226.523 517.704 226.523 517.704L203.473 514.701C203.473 514.701 178.296 492.369 218.35 455.148C218.35 455.148 228.433 417.911 223.964 417.919C219.494 417.928 219.494 423.932 219.494 411.89V399.849L166.452 307.509C166.452 307.509 132.602 282.971 133.133 271.755C133.665 260.538 204.494 248.841 204.494 248.841Z" fill="#2F2E41"/>
<path d="M166.852 274.363C166.852 274.363 190.884 387.088 187.451 390.278C184.018 393.468 184.018 401.474 184.018 401.474L129.087 514.701L107.344 515.764C106.831 483.369 106.689 458.797 125.654 436.006L134.809 269.046L166.852 274.363Z" fill="#2F2E41"/>
<path d="M198.052 140.554L171.861 121.339L158.112 120.596L137.711 132.741L132.716 156.423L120.902 183.091L138.23 255.059C138.23 255.059 139.855 260.224 135.596 260.844C131.338 261.464 131.848 269.077 131.848 269.077C131.848 269.077 132.715 275.674 128.58 276.255C124.444 276.836 113.417 276.836 123.067 288.365C132.716 299.894 209.037 256.29 209.037 256.29L220.122 202.24C220.122 202.24 241.62 175.408 218.469 160.041L198.052 140.554Z" fill="#F8F1DE"/>
<path d="M83.7146 303.955C82.5605 302.617 81.7362 301.06 81.2998 299.393C80.8634 297.727 80.8255 295.992 81.1886 294.311C81.5518 292.629 82.3073 291.042 83.4019 289.662C84.4965 288.281 85.9035 287.14 87.524 286.319L120.469 183.578L141.069 193.216L105.191 291.692C106.495 294.313 106.718 297.287 105.819 300.051C104.92 302.815 102.962 305.176 100.314 306.688C97.667 308.2 94.5151 308.756 91.4557 308.253C88.3962 307.749 85.6419 306.22 83.7147 303.955L83.7146 303.955Z" fill="#A0616A"/>
<path d="M142.442 131.791C142.442 131.791 136.554 128.882 132.526 141.467C129.301 151.542 103.135 211.554 102.802 226.144C100.648 226.568 98.7081 227.646 97.2865 229.208C95.8648 230.769 95.0427 232.726 94.9496 234.77L127.301 238.798C132.954 234.368 134.437 228.383 132.25 226.607L139.274 208.779L168.579 152.058L146.739 133.823L142.442 131.791Z" fill="#F8F1DE"/>
<path d="M315.307 270.184C315.725 268.513 315.744 266.778 315.362 265.1C314.98 263.423 314.207 261.843 313.097 260.473C311.987 259.103 310.567 257.976 308.937 257.17C307.308 256.365 305.508 255.902 303.665 255.813L228.091 175.606L212.06 193.382L290.236 267.757C290.28 270.644 291.463 273.416 293.56 275.547C295.656 277.678 298.521 279.02 301.612 279.319C304.702 279.618 307.803 278.853 310.327 277.17C312.851 275.486 314.623 273 315.307 270.184Z" fill="#A0616A"/>
<path d="M182.236 138.55C182.236 138.55 186.192 133.561 195.681 143.29C203.277 151.078 254.796 194.673 261.887 207.695C264.026 207.212 266.277 207.404 268.285 208.241C270.294 209.078 271.946 210.512 272.981 212.317L245.685 228.95C238.526 227.227 234.404 222.427 235.55 219.946L220.92 206.695L168.101 167.327L179.307 142.109L182.236 138.55Z" fill="#F8F1DE"/>
<path d="M192.816 93.5209C198.764 79.308 191.186 63.3055 175.892 57.7783C160.597 52.2511 143.376 59.2922 137.429 73.5051C131.481 87.718 139.058 103.72 154.352 109.248C169.647 114.775 186.868 107.734 192.816 93.5209Z" fill="#A0616A"/>
<path d="M200.623 58.2027C198.834 56.4107 196.465 55.2103 193.876 54.7836C191.286 54.357 188.618 54.7276 186.275 55.8391C186.873 52.736 187.471 49.6328 188.069 46.5296C183.1 45.8228 178.131 45.116 173.163 44.4092C165.666 43.3429 157.942 42.2836 150.57 43.9368C145.292 45.1917 140.483 47.7613 136.661 51.3686C132.839 54.976 130.149 59.4842 128.881 64.4075C125.671 62.3846 121.914 61.2388 118.038 61.1C114.162 60.9613 110.322 61.8351 106.953 63.6224C103.584 65.4097 100.822 68.0388 98.9808 71.2113C97.1392 74.3838 96.2916 77.9725 96.5342 81.5701C96.8914 86.8652 99.556 91.7512 101.205 96.8307C107.47 116.133 97.0935 138.917 77.8202 148.175C84.0276 152.551 90.4383 157.022 97.9552 158.926C105.472 160.83 114.458 159.579 119.409 153.988C121.941 151.127 123.164 147.485 124.33 143.943C129.043 129.621 133.756 115.299 138.47 100.977L146.09 113.762C148.523 116.924 147.652 121.349 145.899 124.878C144.146 128.407 141.6 131.675 140.815 135.493C140.03 139.311 141.854 144.042 145.937 144.886C151.454 132.826 157.089 119.974 154.949 107.022C154.116 101.98 152.121 96.8102 153.688 91.9224C154.899 88.1454 158.106 85.1732 161.668 83.0347C165.398 80.7995 169.587 79.3092 173.969 78.6584C183.654 77.227 195.708 79.1493 201.393 71.724C202.866 69.6997 203.588 67.2838 203.449 64.8433C203.31 62.4028 202.318 60.0712 200.623 58.2027Z" fill="#2F2E41"/>
<path d="M181.732 229.221C195.63 229.221 206.896 218.752 206.896 205.837C206.896 192.922 195.63 182.453 181.732 182.453C167.835 182.453 156.568 192.922 156.568 205.837C156.568 218.752 167.835 229.221 181.732 229.221Z" fill="#468189"/>
<path d="M187.606 194.07C187.74 194.578 187.94 195.069 188.202 195.532C188.423 196.054 188.796 196.51 189.278 196.848C189.76 197.186 190.334 197.394 190.935 197.448C191.036 197.443 191.136 197.43 191.235 197.407C192.31 197.161 192.967 195.95 192.977 194.437C192.978 193.914 192.909 193.393 192.773 192.886C192.642 192.382 192.444 191.896 192.185 191.438C191.42 190.097 190.227 189.3 189.148 189.547C187.719 189.875 187.031 191.9 187.606 194.07Z" fill="#FBF8EE"/>
<path d="M189.546 195.525C189.75 196.298 190.242 196.98 190.935 197.448C191.036 197.443 191.136 197.43 191.235 197.408C192.31 197.161 192.967 195.95 192.977 194.438C192.978 193.914 192.909 193.393 192.773 192.886C192.642 192.382 192.444 191.896 192.185 191.438C191.253 191.656 190.452 192.209 189.958 192.975C189.463 193.741 189.315 194.658 189.546 195.525Z" fill="#3F3D56"/>
<path d="M176.903 196.523C177.456 198.606 178.974 200.065 180.359 199.891C180.417 199.884 180.474 199.874 180.531 199.861C181.957 199.534 182.646 197.508 182.07 195.339C181.939 194.836 181.742 194.351 181.482 193.894C180.717 192.55 179.524 191.753 178.445 192C177.016 192.328 176.327 194.354 176.903 196.523Z" fill="#FBF8EE"/>
<path d="M178.949 197.953C179.154 198.735 179.655 199.422 180.359 199.891C180.417 199.884 180.474 199.874 180.531 199.861C181.957 199.534 182.646 197.508 182.07 195.339C181.939 194.836 181.742 194.351 181.482 193.894C180.576 194.134 179.806 194.691 179.333 195.448C178.86 196.205 178.723 197.104 178.949 197.953Z" fill="#3F3D56"/>
<path d="M198.103 203.377C199.634 209.145 197.208 214.662 192.686 215.698C188.163 216.735 183.256 212.899 181.725 207.131C187.306 208.433 192.769 207.26 198.103 203.377Z" fill="#FBF8EE"/>
<path opacity="0.2" d="M157.302 211.481C156.065 206.819 156.402 201.917 158.266 197.439C160.131 192.961 163.433 189.125 167.725 186.451C163.72 190.725 161.522 196.206 161.54 201.874C161.557 207.541 163.789 213.01 167.821 217.263C171.852 221.516 177.408 224.264 183.456 224.996C189.504 225.728 195.632 224.394 200.701 221.242C197.676 224.47 193.755 226.865 189.366 228.164C184.977 229.463 180.288 229.618 175.811 228.611C171.334 227.604 167.241 225.474 163.977 222.453C160.713 219.433 158.404 215.637 157.302 211.481Z" fill="black"/>
<path d="M728.97 553.741C728.472 553.762 727.979 553.641 727.558 553.393C727.137 553.145 726.808 552.783 726.615 552.355C726.423 551.928 726.377 551.456 726.483 551.003C726.589 550.551 726.842 550.139 727.208 549.825L727.375 549.209C727.353 549.16 727.331 549.11 727.309 549.061C726.807 547.96 725.966 547.021 724.892 546.362C723.818 545.703 722.558 545.354 721.271 545.359C719.984 545.363 718.727 545.721 717.658 546.387C716.589 547.053 715.756 547.998 715.263 549.103C713.293 553.512 710.785 557.929 710.167 562.591C709.895 564.652 710.01 566.741 710.506 568.765C705.879 559.385 703.476 549.191 703.461 538.872C703.46 536.283 703.615 533.696 703.925 531.122C704.181 529.013 704.536 526.918 704.99 524.839C707.47 513.556 712.795 502.981 720.528 493.982C724.27 492.084 727.297 489.166 729.199 485.621C729.889 484.347 730.376 482.986 730.646 481.582C730.224 481.633 729.054 475.659 729.373 475.292C728.784 474.463 727.731 474.05 727.089 473.241C723.893 469.214 719.49 469.917 717.192 475.389C712.282 477.691 712.234 481.511 715.247 485.184C717.164 487.52 717.427 490.682 719.109 493.184C718.936 493.39 718.756 493.589 718.583 493.795C715.42 497.574 712.663 501.633 710.352 505.912C710.914 501.118 710.244 496.269 708.395 491.763C706.522 487.563 703.011 484.027 699.919 480.397C699.101 479.421 697.991 478.693 696.728 478.304C695.465 477.916 694.106 477.884 692.824 478.212C691.541 478.541 690.392 479.215 689.522 480.151C688.652 481.086 688.1 482.24 687.935 483.467C687.929 483.52 687.923 483.574 687.917 483.627C688.376 483.868 688.825 484.123 689.265 484.394C689.818 484.737 690.246 485.227 690.494 485.8C690.741 486.373 690.797 487.002 690.653 487.605C690.509 488.208 690.173 488.757 689.688 489.179C689.203 489.601 688.592 489.878 687.935 489.972L687.868 489.981C688.032 491.519 688.321 493.044 688.733 494.541C684.767 508.796 693.33 513.988 705.558 514.221C705.828 514.35 706.091 514.478 706.361 514.6C704.039 520.715 702.583 527.084 702.028 533.547C701.714 537.36 701.733 541.191 702.084 545.001L702.063 544.866C701.177 540.629 698.745 536.806 695.177 534.042C689.877 529.997 682.39 528.507 676.673 525.256C676.066 524.893 675.359 524.7 674.637 524.698C673.915 524.696 673.208 524.887 672.598 525.246C671.989 525.606 671.503 526.12 671.197 526.728C670.892 527.336 670.78 528.013 670.875 528.678L670.898 528.82C671.751 529.143 672.58 529.514 673.383 529.933C673.842 530.174 674.292 530.429 674.732 530.699C675.284 531.042 675.712 531.533 675.96 532.106C676.208 532.679 676.263 533.308 676.119 533.911C675.976 534.514 675.639 535.062 675.154 535.485C674.669 535.907 674.058 536.183 673.402 536.277L673.334 536.287C673.286 536.293 673.244 536.3 673.196 536.306C674.652 539.537 676.696 542.511 679.238 545.098C681.718 557.542 692.371 558.722 703.765 555.098H703.772C705.023 560.147 706.834 565.061 709.178 569.762H728.487C728.556 569.562 728.618 569.357 728.68 569.157C726.893 569.262 725.099 569.162 723.337 568.862C724.77 567.228 726.203 565.581 727.635 563.948C727.667 563.917 727.697 563.885 727.725 563.851C728.452 563.015 729.186 562.186 729.912 561.35L729.913 561.349C729.951 558.786 729.635 556.229 728.971 553.742L728.97 553.741Z" fill="#F2F2F2"/>
<path d="M5.64374e-06 569.815C-0.000493762 569.971 0.0321553 570.125 0.0960631 570.269C0.159971 570.413 0.253886 570.544 0.372398 570.654C0.49091 570.764 0.631677 570.851 0.786614 570.911C0.941551 570.97 1.10761 571 1.27521 571H737.725C738.063 571 738.387 570.875 738.627 570.653C738.866 570.431 739 570.129 739 569.815C739 569.501 738.866 569.199 738.627 568.977C738.387 568.755 738.063 568.63 737.725 568.63H1.27514C1.10755 568.63 0.941508 568.66 0.786581 568.719C0.631654 568.779 0.490885 568.866 0.372382 568.976C0.253878 569.086 0.159969 569.217 0.0960631 569.361C0.0321573 569.505 -0.000488032 569.659 5.64374e-06 569.815Z" fill="#CCCCCC"/>
<path d="M521.793 553.509L506.248 553.508L498.854 497.791L521.796 497.793L521.793 553.509Z" fill="#FFB6B6"/>
<path d="M522.34 568.578L474.539 568.576V568.015C474.539 563.429 476.499 559.032 479.988 555.79C483.478 552.547 488.21 550.726 493.144 550.725H493.145L501.877 544.57L518.168 550.726L522.341 550.726L522.34 568.578Z" fill="#2F2E41"/>
<path d="M589.6 553.509L574.057 553.508L566.662 497.791L589.603 497.793L589.6 553.509Z" fill="#FFB6B6"/>
<path d="M590.148 568.578L542.346 568.576V568.015C542.347 563.429 544.307 559.032 547.796 555.789C551.285 552.547 556.018 550.725 560.952 550.725H560.953L569.685 544.57L585.976 550.726L590.149 550.726L590.148 568.578Z" fill="#2F2E41"/>
<path d="M483.088 249.922C483.088 249.922 468.132 292.608 470.893 298.226C473.654 303.844 478.364 299.467 473.654 303.844C468.944 308.221 464.832 303.568 469.243 311.001C473.654 318.434 480.336 379.621 483.275 382.583C486.213 385.545 490.254 385.624 486.664 388.502C483.073 391.38 478.363 385.545 483.073 391.38C487.783 397.216 500.281 531.84 500.281 531.84H524.697C524.697 531.84 530.777 525.327 527.335 521.088C523.893 516.849 527.637 515.215 527.335 512.385C527.033 509.554 528.178 503.452 528.39 500.667C528.603 497.883 532.729 431.546 522.816 393.227L540.892 320.262L562.789 408.45C562.789 408.45 552.717 482.42 562.789 506.2C562.789 506.2 554.668 512.484 558.27 516.125C561.871 519.767 565.011 516.849 561.871 519.767C558.731 522.685 566.581 532.897 566.581 532.897L593.271 531.438L608.377 393.227C608.377 393.227 610.924 378.813 608.377 376.343C605.831 373.873 605.831 382.627 605.831 373.873V362.202C605.831 362.202 604.356 290.415 604.159 286.188C603.962 281.96 585.123 251.322 585.123 251.322L483.088 249.922Z" fill="#2F2E41"/>
<path d="M483.311 102.491V186.66C486.235 194.81 487.743 203.341 487.779 211.932C487.683 226.241 484.297 242.73 484.308 249.939C484.263 250.895 484.375 251.852 484.64 252.777C499.631 293.154 578.956 256.461 586.167 253.026C586.51 252.867 586.692 252.777 586.692 252.777L585.128 207.551L585.396 194.547L587.249 105.339L585.588 104.104L571.037 93.3203L569.612 92.2648L565.24 98.1894L526.269 95.7001L511.396 91.8765L506.756 93.6289L485.84 101.535L483.311 102.491Z" fill="#468189"/>
<path d="M460.236 271.841L465.359 245.538L481.936 246.162L475.455 273.791C476.33 275.244 476.751 276.894 476.672 278.557C476.592 280.22 476.015 281.83 475.006 283.204C473.996 284.579 472.594 285.665 470.956 286.34C469.319 287.015 467.511 287.252 465.737 287.025C463.962 286.797 462.291 286.115 460.911 285.053C459.531 283.991 458.498 282.593 457.926 281.016C457.355 279.438 457.268 277.744 457.676 276.123C458.084 274.502 458.97 273.019 460.236 271.841V271.841Z" fill="#FFB6B6"/>
<path d="M485.856 102.312C494.376 104.362 499.239 114.624 502.231 122.314C506.084 132.194 499.836 193.108 492.236 201.992C486.341 208.884 487.741 207.559 489.686 213.266C491.632 218.974 496.127 213.407 492.081 221.897C488.034 230.387 484.59 228.855 487.285 232.474C489.98 236.094 493.126 235.677 489.679 241.105C486.233 246.532 486.532 248.481 485.782 250.569C485.033 252.657 484.13 267.689 484.13 267.689C484.13 267.689 466.606 265.04 457.468 268.24C457.468 268.24 463.763 253.487 461.217 250.842C458.672 248.196 455.376 247.639 458.073 244.299C460.77 240.959 466.163 241.239 460.471 239.01C454.78 236.782 459.582 205.326 459.582 205.326C453.193 184.621 457.645 153.652 464.112 120.774C465.069 115.912 467.712 111.475 471.639 108.141C475.566 104.807 480.559 102.76 485.856 102.312Z" fill="#468189"/>
<path d="M596.414 270.094L597.653 243.389L614.169 241.918L611.778 270.109C612.856 271.438 613.515 273.02 613.679 274.678C613.843 276.335 613.506 278.002 612.706 279.492C611.906 280.981 610.675 282.234 609.151 283.109C607.627 283.984 605.871 284.446 604.08 284.445C602.289 284.443 600.533 283.977 599.011 283.099C597.49 282.221 596.261 280.966 595.465 279.475C594.669 277.984 594.336 276.316 594.503 274.659C594.671 273.002 595.333 271.421 596.414 270.094Z" fill="#FFB6B6"/>
<path d="M579.151 102.74L579.613 102.79C583.918 103.262 588.034 104.702 591.606 106.985C595.177 109.269 598.095 112.326 600.108 115.894C605.367 125.197 622.002 188.211 617.929 196.859C614.13 204.923 614.287 202.94 617.048 208.35C619.808 213.759 623.45 207.678 620.679 216.599C617.909 225.52 614.272 224.436 617.471 227.683C620.669 230.93 623.725 230.12 621.102 235.932C618.479 241.744 619.06 243.637 618.622 245.8C618.184 247.963 619.483 262.97 619.483 262.97C619.483 262.97 601.734 262.554 593.147 266.875C593.147 266.875 597.232 251.465 594.323 249.165C591.415 246.865 588.069 246.728 590.254 243.079C592.439 239.43 597.822 239.027 591.858 237.537C585.894 236.046 586.062 204.275 586.062 204.275L579.151 102.74Z" fill="#468189"/>
<path d="M536.598 68.7057C537.295 68.855 537.991 68.9845 538.688 69.0841C540.815 69.4088 542.975 69.5123 545.128 69.3927C550.734 69.113 556.147 67.3957 560.768 64.4313C565.388 61.4668 569.034 57.3712 571.302 52.5985C573.57 47.8258 574.371 42.5626 573.617 37.3925C572.862 32.2225 570.581 27.3477 567.027 23.3088C563.473 19.2699 558.785 16.2247 553.482 14.5109C548.179 12.7971 542.469 12.4817 536.985 13.5997C531.501 14.7177 526.457 17.2254 522.413 20.8447C518.369 24.4639 515.483 29.0533 514.075 34.1039C514.01 34.3329 513.946 34.552 513.893 34.781C512.064 42.0775 513.429 49.7502 517.687 56.1118C521.945 62.4735 528.747 67.0035 536.598 68.7057Z" fill="#FFB6B6"/>
<path d="M564.653 65.3723C568.881 62.2977 569.291 56.4371 572.899 52.7427C578.931 46.566 581.765 39.9206 578.605 32.6017C575.81 26.1283 576.404 18.171 570.385 14.0042C573.341 13.0097 574.037 10.9444 571.429 10.9063C569.67 10.8806 563.112 14.0047 566.267 10.1129C569.423 6.22107 563.45 7.75725 563.845 6.1642C564.24 4.57114 566.773 3.68881 567.891 4.9516C564.324 1.06763 556.534 1.89569 554.003 6.42788C550.447 1.47637 546.673 -1.93072 541.233 1.21151C535.89 4.29762 535.959 8.1125 530.213 7.19568C527.512 6.7647 527.257 11.5072 525.412 13.3904C523.566 15.2735 520.869 16.7309 518.176 16.258C515.482 15.785 513.423 12.6662 514.932 10.5401L508.585 23.9967L506.027 21.0807C501.962 23.5425 503.297 29.9661 507.388 32.3891C511.48 34.8121 519.289 29.2117 521.509 33.2204C525.01 39.5395 533.221 36.3486 538.86 31.8829C545.698 26.4671 553.952 42.9339 550.658 50.7012C554.076 47.5823 560.399 50.1706 562.17 54.3067C563.94 58.4429 562.642 63.1029 561.329 67.3839L564.653 65.3723Z" fill="#2F2E41"/>
<path d="M506.756 93.6288L507.817 94.8835L510.667 98.2491L521.216 127.205L571.037 93.3202L569.612 92.2647L562.025 77.2789L523.054 74.7896L511.396 91.8763L506.756 93.6288Z" fill="#3F3D56"/>
<path d="M559.792 167.484C557.282 192.54 539.323 211.475 519.678 209.776C500.033 208.077 486.143 186.387 488.652 161.331C509.032 173.754 532.642 176.126 559.792 167.484Z" fill="#FBF8EE"/>
<path d="M513.383 137.685C513.282 139.174 512.986 140.647 512.501 142.07C511.201 145.797 508.683 148.423 505.862 148.728C505.576 148.764 505.287 148.773 504.999 148.755C501.844 148.566 499.345 145.472 498.496 141.228C498.213 139.759 498.123 138.263 498.229 136.774C498.325 135.299 498.617 133.841 499.099 132.432C500.521 128.308 503.439 125.513 506.603 125.703C510.794 125.955 513.826 131.322 513.383 137.685Z" fill="#FBF8EE"/>
<path d="M508.723 142.678C508.57 144.946 507.556 147.09 505.862 148.728C505.576 148.764 505.287 148.773 504.999 148.756C501.844 148.566 499.345 145.472 498.496 141.229C498.213 139.76 498.123 138.264 498.229 136.774C498.325 135.299 498.618 133.841 499.099 132.432C501.835 132.611 504.383 133.789 506.186 135.709C507.99 137.629 508.902 140.135 508.723 142.678Z" fill="#3F3D56"/>
<path d="M544.774 139.571C544.349 145.679 540.874 150.489 536.891 150.645C536.724 150.653 536.557 150.652 536.39 150.641C532.208 150.39 529.177 145.023 529.62 138.66C529.716 137.188 530.008 135.732 530.489 134.327C531.911 130.194 534.83 127.399 537.994 127.589C542.185 127.841 545.216 133.208 544.774 139.571Z" fill="#FBF8EE"/>
<path d="M539.803 144.545C539.648 146.837 538.615 149.001 536.891 150.645C536.724 150.653 536.557 150.652 536.39 150.642C532.208 150.39 529.177 145.023 529.62 138.66C529.716 137.188 530.008 135.733 530.489 134.327C533.164 134.577 535.629 135.782 537.367 137.688C539.104 139.594 539.978 142.053 539.803 144.545Z" fill="#3F3D56"/>
<path d="M280.732 81.5819C288.913 81.5819 295.545 75.4189 295.545 67.8166C295.545 60.2142 288.913 54.0513 280.732 54.0513C272.551 54.0513 265.919 60.2142 265.919 67.8166C265.919 75.4189 272.551 81.5819 280.732 81.5819Z" fill="#F2F2F2"/>
<path d="M282.609 62.0779C282.594 62.3855 282.619 62.6937 282.684 62.9956C282.716 63.3248 282.845 63.6395 283.056 63.9049C283.268 64.1703 283.555 64.376 283.885 64.4993C283.943 64.5126 284.002 64.5205 284.062 64.5229C284.713 64.5497 285.3 63.9671 285.577 63.1146C285.67 62.8193 285.725 62.5144 285.739 62.2067C285.755 61.9022 285.73 61.597 285.665 61.2982C285.473 60.4228 284.942 59.7888 284.288 59.7619C283.423 59.7262 282.672 60.7639 282.609 62.0779Z" fill="#FBF8EE"/>
<path d="M283.444 63.1991C283.421 63.6674 283.577 64.1282 283.885 64.4995C283.943 64.5128 284.002 64.5207 284.062 64.523C284.713 64.5499 285.3 63.9673 285.577 63.1148C285.67 62.8194 285.725 62.5146 285.739 62.2069C285.755 61.9024 285.73 61.5972 285.665 61.2984C285.1 61.2781 284.549 61.4666 284.133 61.8228C283.716 62.179 283.469 62.6739 283.444 63.1991Z" fill="#F2F2F2"/>
<path d="M276.126 61.8113C276.066 63.0729 276.663 64.1316 277.476 64.2466C277.51 64.2516 277.544 64.2549 277.579 64.2562C278.442 64.2918 279.193 63.2542 279.256 61.9402C279.272 61.6362 279.247 61.3317 279.182 61.0334C278.99 60.1562 278.459 59.5222 277.805 59.4953C276.94 59.4596 276.189 60.4972 276.126 61.8113Z" fill="#FBF8EE"/>
<path d="M277.026 62.9348C277.002 63.408 277.162 63.8733 277.476 64.2465C277.51 64.2515 277.544 64.2547 277.579 64.2561C278.442 64.2917 279.193 63.254 279.256 61.94C279.272 61.6361 279.247 61.3315 279.182 61.0333C278.628 61.0288 278.093 61.2246 277.691 61.5793C277.288 61.934 277.05 62.42 277.026 62.9348Z" fill="#F2F2F2"/>
<path d="M286.873 68.9544C286.707 72.4483 284.351 75.1893 281.612 75.0766C278.872 74.9638 276.787 72.0401 276.953 68.5461C278.45 69.3483 280.133 69.8041 281.86 69.8752C283.586 69.9462 285.306 69.6304 286.873 68.9544Z" fill="#FBF8EE"/>
<path d="M358.953 223.972C367.134 223.972 373.767 217.809 373.767 210.207C373.767 202.604 367.134 196.441 358.953 196.441C350.772 196.441 344.14 202.604 344.14 210.207C344.14 217.809 350.772 223.972 358.953 223.972Z" fill="#F2F2F2"/>
<path d="M360.831 204.468C360.815 204.776 360.841 205.084 360.906 205.386C360.937 205.715 361.066 206.03 361.278 206.295C361.49 206.56 361.777 206.766 362.107 206.889C362.165 206.903 362.224 206.911 362.283 206.913C362.935 206.94 363.522 206.357 363.798 205.505C363.892 205.209 363.946 204.905 363.96 204.597C363.976 204.292 363.951 203.987 363.887 203.688C363.694 202.813 363.163 202.179 362.51 202.152C361.644 202.116 360.893 203.154 360.831 204.468Z" fill="#FBF8EE"/>
<path d="M361.666 205.589C361.643 206.057 361.799 206.518 362.107 206.889C362.164 206.903 362.224 206.911 362.283 206.913C362.935 206.94 363.522 206.357 363.798 205.505C363.892 205.209 363.946 204.904 363.96 204.597C363.976 204.292 363.951 203.987 363.887 203.688C363.321 203.668 362.77 203.857 362.354 204.213C361.938 204.569 361.69 205.064 361.666 205.589Z" fill="#F2F2F2"/>
<path d="M354.348 204.201C354.287 205.463 354.884 206.522 355.697 206.637C355.731 206.642 355.766 206.645 355.8 206.646C356.664 206.682 357.415 205.644 357.477 204.33C357.493 204.026 357.468 203.722 357.404 203.423C357.212 202.546 356.68 201.912 356.027 201.885C355.161 201.85 354.41 202.887 354.348 204.201Z" fill="#FBF8EE"/>
<path d="M355.247 205.325C355.224 205.798 355.383 206.263 355.697 206.637C355.731 206.642 355.766 206.645 355.8 206.646C356.664 206.682 357.415 205.644 357.477 204.33C357.493 204.026 357.468 203.722 357.404 203.423C356.849 203.419 356.314 203.615 355.912 203.969C355.51 204.324 355.271 204.81 355.247 205.325Z" fill="#F2F2F2"/>
<path d="M365.095 211.345C364.928 214.838 362.572 217.579 359.833 217.467C357.094 217.354 355.008 214.43 355.175 210.936C356.672 211.738 358.354 212.194 360.081 212.265C361.807 212.336 363.527 212.021 365.095 211.345Z" fill="#FBF8EE"/>
<path d="M643.98 62.6629C652.161 62.6629 658.793 56.5 658.793 48.8976C658.793 41.2953 652.161 35.1323 643.98 35.1323C635.799 35.1323 629.167 41.2953 629.167 48.8976C629.167 56.5 635.799 62.6629 643.98 62.6629Z" fill="#F2F2F2"/>
<path d="M645.857 43.159C645.842 43.4666 645.867 43.7747 645.932 44.0767C645.963 44.4059 646.092 44.7206 646.304 44.9859C646.516 45.2513 646.803 45.457 647.133 45.5803C647.191 45.5936 647.25 45.6015 647.309 45.6039C647.961 45.6307 648.548 45.0482 648.824 44.1957C648.918 43.9003 648.972 43.5954 648.986 43.2878C649.002 42.9833 648.978 42.6781 648.913 42.3792C648.721 41.5038 648.19 40.8698 647.536 40.8429C646.67 40.8073 645.919 41.8449 645.857 43.159Z" fill="#FBF8EE"/>
<path d="M646.692 44.2802C646.669 44.7485 646.825 45.2092 647.133 45.5805C647.191 45.5938 647.25 45.6017 647.309 45.6041C647.961 45.6309 648.548 45.0484 648.824 44.1959C648.918 43.9005 648.972 43.5956 648.986 43.288C649.002 42.9835 648.978 42.6783 648.913 42.3794C648.347 42.3591 647.796 42.5477 647.38 42.9039C646.964 43.2601 646.717 43.7549 646.692 44.2802Z" fill="#F2F2F2"/>
<path d="M639.374 42.8924C639.314 44.154 639.91 45.2127 640.723 45.3276C640.757 45.3327 640.792 45.3359 640.826 45.3373C641.69 45.3728 642.441 44.3352 642.503 43.0212C642.519 42.7173 642.494 42.4127 642.43 42.1145C642.238 41.2372 641.707 40.6032 641.053 40.5763C640.187 40.5406 639.436 41.5782 639.374 42.8924Z" fill="#FBF8EE"/>
<path d="M640.273 44.0159C640.25 44.489 640.409 44.9544 640.723 45.3275C640.757 45.3326 640.792 45.3358 640.826 45.3372C641.69 45.3727 642.441 44.3351 642.503 43.0211C642.519 42.7172 642.494 42.4126 642.43 42.1143C641.875 42.1099 641.34 42.3056 640.938 42.6603C640.536 43.0151 640.297 43.501 640.273 44.0159Z" fill="#F2F2F2"/>
<path d="M650.121 50.0355C649.954 53.5294 647.599 56.2704 644.859 56.1576C642.12 56.0449 640.034 53.1211 640.201 49.6272C641.698 50.4294 643.381 50.8852 645.107 50.9562C646.834 51.0273 648.553 50.7115 650.121 50.0355Z" fill="#FBF8EE"/>
<path d="M20.351 428.098C28.532 428.098 35.1641 421.935 35.1641 414.332C35.1641 406.73 28.532 400.567 20.351 400.567C12.1699 400.567 5.5379 406.73 5.5379 414.332C5.5379 421.935 12.1699 428.098 20.351 428.098Z" fill="#F2F2F2"/>
<path d="M22.2282 408.594C22.213 408.901 22.2382 409.209 22.3033 409.511C22.3347 409.84 22.4636 410.155 22.6755 410.421C22.8875 410.686 23.1743 410.892 23.5043 411.015C23.562 411.028 23.6211 411.036 23.6805 411.038C24.3321 411.065 24.9192 410.483 25.1956 409.63C25.2892 409.335 25.3437 409.03 25.3578 408.722C25.3736 408.418 25.3489 408.113 25.2842 407.814C25.092 406.938 24.561 406.304 23.9074 406.278C23.0418 406.242 22.2908 407.279 22.2282 408.594Z" fill="#FBF8EE"/>
<path d="M23.0634 409.715C23.0401 410.183 23.1963 410.644 23.5043 411.015C23.562 411.028 23.6211 411.036 23.6805 411.039C24.3321 411.065 24.9192 410.483 25.1956 409.63C25.2892 409.335 25.3437 409.03 25.3578 408.723C25.3736 408.418 25.3489 408.113 25.2842 407.814C24.7188 407.794 24.1678 407.982 23.7516 408.338C23.3355 408.695 23.088 409.189 23.0634 409.715Z" fill="#F2F2F2"/>
<path d="M15.7451 408.327C15.685 409.588 16.2816 410.647 17.0947 410.762C17.1287 410.767 17.1631 410.77 17.1975 410.772C18.0612 410.807 18.8122 409.77 18.8748 408.456C18.8906 408.152 18.8659 407.847 18.8011 407.549C18.6091 406.672 18.078 406.038 17.4244 406.011C16.5588 405.975 15.8078 407.013 15.7451 408.327Z" fill="#FBF8EE"/>
<path d="M16.6446 409.451C16.621 409.924 16.7807 410.389 17.0947 410.762C17.1287 410.767 17.1631 410.77 17.1975 410.772C18.0612 410.807 18.8122 409.77 18.8748 408.456C18.8907 408.152 18.8659 407.847 18.8011 407.549C18.2466 407.544 17.7118 407.74 17.3095 408.095C16.9073 408.45 16.6689 408.936 16.6446 409.451Z" fill="#F2F2F2"/>
<path d="M26.4921 415.47C26.3255 418.964 23.9699 421.705 21.2306 421.592C18.4912 421.479 16.4055 418.556 16.5721 415.062C18.0692 415.864 19.752 416.32 21.4784 416.391C23.2049 416.462 24.9245 416.146 26.4921 415.47Z" fill="#FBF8EE"/>
<path d="M23.5656 210.032C31.7466 210.032 38.3787 203.869 38.3787 196.266C38.3787 188.664 31.7466 182.501 23.5656 182.501C15.3845 182.501 8.7525 188.664 8.7525 196.266C8.7525 203.869 15.3845 210.032 23.5656 210.032Z" fill="#F2F2F2"/>
<path d="M25.4428 190.528C25.4276 190.835 25.4528 191.144 25.5179 191.446C25.5493 191.775 25.6782 192.089 25.8901 192.355C26.1021 192.62 26.3889 192.826 26.7189 192.949C26.7766 192.963 26.8357 192.97 26.8951 192.973C27.5467 193 28.1338 192.417 28.4102 191.565C28.5038 191.269 28.5583 190.964 28.5724 190.657C28.5882 190.352 28.5635 190.047 28.4988 189.748C28.3066 188.873 27.7756 188.239 27.122 188.212C26.2564 188.176 25.5054 189.214 25.4428 190.528Z" fill="#FBF8EE"/>
<path d="M26.278 191.649C26.2547 192.117 26.4109 192.578 26.7188 192.949C26.7766 192.962 26.8356 192.97 26.895 192.973C27.5466 193 28.1337 192.417 28.4102 191.565C28.5038 191.269 28.5582 190.964 28.5723 190.657C28.5882 190.352 28.5634 190.047 28.4987 189.748C27.9333 189.728 27.3823 189.916 26.9662 190.273C26.55 190.629 26.3026 191.124 26.278 191.649Z" fill="#F2F2F2"/>
<path d="M18.9597 190.261C18.8996 191.523 19.4962 192.581 20.3093 192.696C20.3433 192.701 20.3777 192.705 20.4121 192.706C21.2758 192.742 22.0268 191.704 22.0894 190.39C22.1052 190.086 22.0805 189.781 22.0157 189.483C21.8237 188.606 21.2926 187.972 20.639 187.945C19.7734 187.909 19.0224 188.947 18.9597 190.261Z" fill="#FBF8EE"/>
<path d="M19.8592 191.385C19.8356 191.858 19.9953 192.323 20.3092 192.696C20.3433 192.701 20.3776 192.705 20.4121 192.706C21.2757 192.741 22.0268 191.704 22.0894 190.39C22.1052 190.086 22.0804 189.781 22.0157 189.483C21.4611 189.479 20.9264 189.674 20.5241 190.029C20.1218 190.384 19.8834 190.87 19.8592 191.385Z" fill="#F2F2F2"/>
<path d="M29.7067 197.404C29.5401 200.898 27.1845 203.639 24.4452 203.526C21.7058 203.414 19.6201 200.49 19.7867 196.996C21.2838 197.798 22.9666 198.254 24.693 198.325C26.4195 198.396 28.1391 198.08 29.7067 197.404Z" fill="#FBF8EE"/>
</g>
<defs>
<clipPath id="clip0_32_1228">
<rect width="739" height="571" fill="white"/>
</clipPath>
</defs>
</svg>
