<svg width="638" height="410" viewBox="0 0 638 410" fill="none" xmlns="http://www.w3.org/2000/svg">
<path d="M116.162 406.837C93.6486 399.961 73.7544 384.414 59.6686 362.689C45.5827 340.963 38.1209 314.318 38.4793 287.022C38.5685 280.222 39.1779 273.278 41.6141 267.107C44.0504 260.935 48.5757 255.597 54.2363 254.135C60.4141 252.539 66.933 255.801 71.5368 260.892C76.1407 265.982 79.1594 272.699 81.9368 279.368C98.6653 319.537 111.375 362.64 116.134 406.999L116.162 406.837Z" fill="#F2F2F2"/>
<path d="M51.4337 255.475L63.158 286.734L74.8823 317.993C78.5954 327.893 82.3014 337.797 86.1393 347.631C89.9435 357.379 93.8781 367.06 98.0754 376.584C102.267 386.095 106.722 395.45 111.557 404.532C112.159 405.663 112.767 406.79 113.381 407.912C113.806 408.689 114.868 407.968 114.44 407.185C109.512 398.171 104.971 388.873 100.712 379.402C96.4487 369.921 92.4638 360.271 88.626 350.543C84.7678 340.764 81.0579 330.906 77.3579 321.043C73.4633 310.662 69.5694 300.28 65.6761 289.898L53.9518 258.639L52.4928 254.749C52.1755 253.903 51.1183 254.635 51.4337 255.475V255.475Z" fill="white"/>
<path d="M111.271 407.054C98.0007 410.616 84.0954 408.847 71.7841 402.03C59.4728 395.212 49.4686 383.742 43.3751 369.457C41.8569 365.898 40.5759 362.1 40.4209 358.124C40.266 354.148 41.3874 349.944 43.9899 347.391C46.8301 344.606 50.9651 344.234 54.5265 345.419C58.0879 346.603 61.2002 349.134 64.1765 351.716C82.1031 367.272 98.6179 385.624 111.294 407.147L111.271 407.054Z" fill="#F2F2F2"/>
<path d="M42.8431 348.975L56.1216 361.49L69.4001 374.005C73.6054 377.968 77.808 381.936 82.0631 385.826C86.2808 389.682 90.5506 393.462 94.921 397.077C99.2851 400.687 103.75 404.133 108.35 407.316C108.923 407.713 109.498 408.105 110.075 408.493C110.474 408.762 110.86 408.051 110.457 407.78C105.825 404.661 101.328 401.272 96.9382 397.705C92.5435 394.133 88.2544 390.385 84.0241 386.551C79.7712 382.696 75.577 378.752 71.3871 374.804C66.9767 370.648 62.5666 366.491 58.1568 362.335L44.8783 349.82L43.2259 348.262C42.8665 347.924 42.486 348.638 42.8431 348.975Z" fill="white"/>
<path d="M527.6 406.054C558.996 396.465 586.739 374.785 606.382 344.488C626.025 314.191 636.431 277.032 635.932 238.968C635.807 229.484 634.957 219.801 631.56 211.195C628.162 202.588 621.852 195.145 613.958 193.105C605.343 190.88 596.252 195.429 589.831 202.528C583.411 209.627 579.201 218.993 575.328 228.293C552 284.311 534.275 344.419 527.639 406.28L527.6 406.054Z" fill="#F2F2F2"/>
<path d="M617.866 194.974L601.516 238.566L585.166 282.158C579.988 295.964 574.82 309.775 569.468 323.49C564.163 337.083 558.676 350.583 552.822 363.865C546.977 377.128 540.765 390.175 534.022 402.84C533.182 404.417 532.334 405.988 531.478 407.553C530.885 408.637 529.404 407.632 530.001 406.54C536.873 393.969 543.206 381.002 549.145 367.795C555.091 354.573 560.648 341.116 566 327.551C571.38 313.913 576.554 300.165 581.714 286.411C587.145 271.934 592.575 257.456 598.004 242.978L614.354 199.386L616.389 193.961C616.832 192.782 618.306 193.802 617.866 194.974Z" fill="white"/>
<path d="M534.42 406.357C552.926 411.325 572.318 408.857 589.487 399.35C606.655 389.843 620.606 373.847 629.104 353.927C631.221 348.963 633.008 343.667 633.224 338.123C633.44 332.578 631.876 326.714 628.247 323.155C624.286 319.27 618.519 318.752 613.553 320.404C608.586 322.056 604.246 325.585 600.096 329.186C575.096 350.88 552.066 376.472 534.389 406.487L534.42 406.357Z" fill="#F2F2F2"/>
<path d="M629.846 325.363L611.329 342.816L592.811 360.268C586.947 365.796 581.086 371.329 575.152 376.754C569.27 382.131 563.316 387.402 557.221 392.443C551.135 397.478 544.909 402.283 538.494 406.723C537.695 407.276 536.893 407.823 536.089 408.364C535.532 408.739 534.994 407.748 535.555 407.37C542.015 403.02 548.286 398.294 554.408 393.319C560.537 388.338 566.518 383.111 572.417 377.764C578.348 372.388 584.197 366.889 590.04 361.383C596.191 355.587 602.341 349.791 608.49 343.994L627.008 326.541L629.312 324.369C629.813 323.897 630.344 324.894 629.846 325.363Z" fill="white"/>
<path d="M158.169 126.24V126.249L152.06 132.24L110.052 143.191C108.759 143.804 107.582 144.71 106.587 145.858C105.593 147.005 104.801 148.371 104.257 149.877C103.157 152.92 103.132 156.351 104.188 159.414C104.711 160.931 105.483 162.313 106.461 163.48C107.439 164.646 108.603 165.576 109.887 166.215C112.48 167.505 115.403 167.534 118.014 166.295L144.772 161.009C146.254 160.72 147.718 160.312 149.152 159.788C149.716 159.591 150.273 159.367 150.822 159.135C153.201 146.975 156.54 135.102 160.799 123.67L158.169 126.24Z" fill="#2F2E41"/>
<path d="M507.084 156.496L501.261 156.453L498.148 156.436L480.311 119.846C480.461 119.463 480.591 119.069 480.7 118.668C482.685 111.482 477.447 106.54 472.459 106.643C471.892 106.642 471.326 106.72 470.774 106.875C480.6 127.74 487.19 150.487 490.237 174.057C490.743 174.225 491.26 174.345 491.782 174.418C494.503 174.705 497.244 174.596 499.942 174.091C503.575 173.55 507.011 172.785 508.842 172.948L507.084 156.496Z" fill="#A0616A"/>
<path d="M526.283 157.192L504.879 153.703C504.095 153.576 503.299 153.784 502.634 154.289C501.97 154.794 501.483 155.562 501.261 156.453C501.215 156.633 501.181 156.817 501.158 157.003L499.444 171.469C499.329 172.484 499.558 173.511 500.083 174.328C500.608 175.146 501.387 175.687 502.25 175.836L523.653 179.326C526.154 179.735 528.691 178.961 530.707 177.175C532.722 175.389 534.05 172.737 534.399 169.802C534.747 166.867 534.088 163.889 532.566 161.525C531.044 159.16 528.784 157.602 526.283 157.192V157.192Z" fill="#468189"/>
<path d="M491.782 174.418C488.821 150.659 482.278 127.709 472.459 106.643C456.674 72.7729 433.053 44.8272 404.32 26.0276C375.587 7.22807 342.91 -1.65982 310.059 0.388637C277.207 2.43709 245.518 15.3385 218.644 37.6054C191.77 59.8724 170.806 90.5982 158.169 126.24V126.249C154.337 137.099 151.32 148.322 149.152 159.788C146.373 174.492 144.976 189.509 144.984 204.57C144.984 258.826 163.351 310.859 196.045 349.223C228.739 387.588 273.081 409.14 319.317 409.14C365.553 409.14 409.895 387.588 442.589 349.223C475.283 310.859 493.65 258.826 493.65 204.57C493.653 194.479 493.029 184.402 491.782 174.418ZM319.317 407.421C223.998 407.421 146.449 316.422 146.449 204.57C146.422 176.73 151.308 149.186 160.799 123.67C187.476 51.9591 248.493 1.71908 319.317 1.71908C384.472 1.71908 441.321 44.2405 470.774 106.875C480.6 127.74 487.19 150.487 490.237 174.057C491.536 184.156 492.187 194.356 492.185 204.57C492.185 316.422 414.636 407.421 319.317 407.421Z" fill="#3F3D56"/>
<path d="M262.732 183.941C254.25 183.94 246.032 180.483 239.48 174.161C232.929 167.839 228.45 159.045 226.811 149.279C225.171 139.514 226.47 129.383 230.488 120.617C234.506 111.852 240.992 104.994 248.84 101.217C256.687 97.4389 265.409 96.9751 273.515 99.9044C281.622 102.834 288.61 108.974 293.287 117.278C297.964 125.581 300.039 135.533 299.159 145.432C298.278 155.331 294.497 164.565 288.459 171.556C281.617 179.515 272.366 183.969 262.732 183.941ZM262.732 99.7065C255.778 99.7059 248.979 102.125 243.196 106.659C237.413 111.193 232.906 117.637 230.245 125.176C227.583 132.716 226.886 141.012 228.243 149.016C229.6 157.02 232.949 164.373 237.866 170.143C242.784 175.914 249.05 179.844 255.871 181.436C262.692 183.028 269.762 182.21 276.187 179.087C282.612 175.964 288.104 170.675 291.967 163.889C295.83 157.103 297.892 149.125 297.892 140.964C297.881 130.026 294.174 119.539 287.582 111.804C280.991 104.07 272.054 99.7189 262.732 99.7065Z" fill="#3F3D56"/>
<path d="M375.536 183.941C368.292 183.941 361.211 181.421 355.188 176.698C349.166 171.976 344.471 165.264 341.699 157.411C338.927 149.558 338.202 140.917 339.615 132.58C341.028 124.243 344.516 116.586 349.639 110.575C354.761 104.565 361.286 100.471 368.391 98.8132C375.495 97.1549 382.859 98.006 389.552 101.259C396.244 104.512 401.964 110.02 405.988 117.088C410.013 124.155 412.161 132.464 412.161 140.964C412.15 152.359 408.287 163.283 401.421 171.339C394.555 179.396 385.246 183.928 375.536 183.941ZM375.536 99.7065C368.582 99.7065 361.784 102.126 356.002 106.66C350.22 111.193 345.714 117.637 343.053 125.176C340.392 132.715 339.695 141.01 341.052 149.013C342.409 157.017 345.757 164.368 350.674 170.138C355.592 175.908 361.856 179.838 368.677 181.429C375.497 183.021 382.566 182.204 388.991 179.082C395.416 175.959 400.907 170.671 404.77 163.886C408.633 157.101 410.696 149.124 410.696 140.964C410.685 130.026 406.977 119.539 400.386 111.804C393.794 104.07 384.858 99.7189 375.536 99.7065Z" fill="#3F3D56"/>
<path d="M287.945 170.945C281.226 178.722 272.169 183.082 262.732 183.082C253.295 183.082 244.238 178.722 237.52 170.945C239.766 165.323 243.33 160.569 247.795 157.238C252.26 153.907 257.441 152.138 262.732 152.138C268.023 152.138 273.205 153.907 277.67 157.238C282.135 160.569 285.699 165.323 287.945 170.945Z" fill="#3F3D56"/>
<path d="M400.748 170.945C394.03 178.722 384.973 183.082 375.536 183.082C366.099 183.082 357.042 178.722 350.324 170.945C352.569 165.323 356.133 160.569 360.598 157.238C365.064 153.907 370.245 152.138 375.536 152.138C380.827 152.138 386.008 153.907 390.473 157.238C394.939 160.569 398.503 165.323 400.748 170.945Z" fill="#3F3D56"/>
<path d="M295.694 211.447C295.694 206.699 308.812 202.851 324.994 202.851C341.176 202.851 354.294 206.699 354.294 211.447C354.294 216.194 341.176 233.795 324.994 233.795C308.812 233.795 295.694 216.194 295.694 211.447Z" fill="#3F3D56"/>
<path d="M227.206 210.157C234.084 210.157 239.659 203.615 239.659 195.545C239.659 187.475 234.084 180.933 227.206 180.933C220.329 180.933 214.754 187.475 214.754 195.545C214.754 203.615 220.329 210.157 227.206 210.157Z" fill="#FF6584"/>
<path d="M411.428 210.587C418.305 210.587 423.88 204.045 423.88 195.975C423.88 187.905 418.305 181.363 411.428 181.363C404.551 181.363 398.976 187.905 398.976 195.975C398.976 204.045 404.551 210.587 411.428 210.587Z" fill="#FF6584"/>
<path d="M144.93 398.278L153.91 398.278L158.182 357.632L144.929 357.633L144.93 398.278Z" fill="#FFB8B8"/>
<path d="M171.229 409.781L143.006 409.783L143.005 396.987L160.324 396.986C163.216 396.986 165.99 398.334 168.035 400.733C170.08 403.133 171.229 406.387 171.229 409.781Z" fill="#2F2E41"/>
<path d="M100.248 398.278L109.228 398.278L113.5 357.632L100.247 357.633L100.248 398.278Z" fill="#FFB8B8"/>
<path d="M126.547 409.781L98.3239 409.783L98.3234 396.987L115.642 396.986C118.534 396.986 121.308 398.334 123.353 400.733C125.398 403.133 126.547 406.387 126.547 409.781Z" fill="#2F2E41"/>
<path d="M147.385 232.618L155.278 306.01C156.364 316.1 157.123 326.227 157.556 336.391L159.683 386.304C159.703 386.769 159.642 387.234 159.504 387.671C159.366 388.108 159.153 388.507 158.88 388.845C158.606 389.183 158.277 389.451 157.912 389.635C157.547 389.819 157.154 389.914 156.757 389.914H144.776C144.075 389.914 143.397 389.619 142.866 389.083C142.334 388.546 141.984 387.804 141.879 386.991L131.104 303.69C131.052 303.289 130.881 302.922 130.62 302.654C130.36 302.387 130.027 302.236 129.681 302.229C129.334 302.223 128.997 302.36 128.729 302.617C128.461 302.874 128.279 303.234 128.216 303.633L115.235 385.217C115.106 385.951 114.777 386.615 114.298 387.109C113.819 387.603 113.215 387.9 112.579 387.954L101.552 388.775C101.142 388.811 100.731 388.744 100.345 388.581C99.9586 388.418 99.606 388.161 99.3097 387.828C99.0134 387.494 98.7802 387.092 98.6251 386.646C98.4699 386.2 98.3964 385.721 98.4092 385.239L101.97 251.528L147.385 232.618Z" fill="#2F2E41"/>
<path d="M112.41 128.081C122.346 128.081 130.4 118.629 130.4 106.97C130.4 95.3102 122.346 85.8584 112.41 85.8584C102.473 85.8584 94.4188 95.3102 94.4188 106.97C94.4188 118.629 102.473 128.081 112.41 128.081Z" fill="#FFB8B8"/>
<path d="M98.3076 253.247C102.703 265.28 121.747 273.876 126.142 256.685C129.541 243.397 143.004 237.81 148.945 235.962C149.692 235.728 150.33 235.159 150.722 234.377C151.114 233.595 151.228 232.664 151.04 231.784L134.434 155.242C133.467 150.784 131.54 146.691 128.839 143.356C126.138 140.021 122.753 137.555 119.008 136.195C105.808 131.399 91.8911 141.275 89.6568 157.271C89.0466 161.756 88.6578 166.279 88.4923 170.817C87.1149 204.588 95.4141 245.322 98.3076 253.247Z" fill="#468189"/>
<path d="M198.235 184.291C197.349 183.573 196.339 183.091 195.278 182.88C194.216 182.67 193.128 182.734 192.09 183.07C191.052 183.406 190.089 184.005 189.27 184.825C188.45 185.645 187.794 186.666 187.347 187.815L161.287 184.932L167.676 199.023L191.444 199.6C193.139 200.354 195.011 200.351 196.705 199.592C198.399 198.834 199.797 197.373 200.634 195.485C201.471 193.598 201.689 191.417 201.247 189.353C200.805 187.29 199.733 185.489 198.235 184.291Z" fill="#FFB8B8"/>
<path d="M185.275 199.962C184.966 200.366 184.587 200.689 184.164 200.91C183.741 201.131 183.283 201.245 182.82 201.245L148.803 200.333C140.57 200.326 132.618 196.809 126.428 190.437L106.032 169.446C104.807 168.66 103.727 167.598 102.852 166.322C101.977 165.045 101.326 163.578 100.935 162.006C100.543 160.434 100.42 158.786 100.572 157.158C100.724 155.529 101.148 153.952 101.82 152.516C102.492 151.081 103.399 149.814 104.488 148.79C105.578 147.766 106.828 147.004 108.169 146.547C109.51 146.091 110.914 145.949 112.301 146.13C113.689 146.311 115.032 146.812 116.254 147.602L150.035 178.882L182.927 186.32C183.585 186.51 184.177 186.932 184.624 187.529C185.071 188.127 185.35 188.871 185.425 189.661L186.1 196.959C186.172 197.742 186.04 198.532 185.719 199.224C185.597 199.49 185.448 199.737 185.275 199.962Z" fill="#2F2E41"/>
<path d="M98.7541 124.237C99.1416 124.507 99.5767 124.668 100.026 124.708C100.475 124.749 100.926 124.668 101.344 124.471C101.762 124.274 102.136 123.967 102.436 123.574C102.737 123.18 102.957 122.71 103.078 122.201L103.088 122.153C103.414 120.551 103.143 118.878 103.05 117.234C102.956 115.59 103.093 113.785 104.047 112.576C105.826 110.323 108.99 111.517 111.561 110.948C113.068 110.553 114.4 109.528 115.309 108.064C116.217 106.6 116.64 104.798 116.498 102.994C116.462 102.653 116.404 102.311 116.34 101.969C116.179 101.103 116.191 100.205 116.376 99.3452C116.561 98.4856 116.913 97.688 117.404 97.015C117.896 96.3419 118.514 95.8118 119.21 95.4661C119.905 95.1204 120.66 94.9687 121.414 95.0227C124.013 95.1971 126.818 96.1211 128.968 93.8623C129.757 92.9713 130.304 91.8276 130.542 90.574C130.78 89.3203 130.698 88.0122 130.306 86.8129C129.078 82.6542 125.608 80.477 122.174 79.2802C117.927 77.8402 113.46 77.5289 109.097 78.3689C104.735 79.2089 100.586 81.179 96.9542 84.1362C94.7852 85.9302 92.7595 88.1845 91.835 91.1034C90.9105 94.0223 91.3565 97.7049 93.4412 99.6318C91.8253 101.639 90.6874 104.11 90.1415 106.796C89.5956 109.482 89.6609 112.29 90.3309 114.937C91.3606 118.83 96.2747 122.563 98.7541 124.237Z" fill="#2F2E41"/>
<path d="M486.471 398.116H477.491L473.219 357.47L486.473 357.471L486.471 398.116Z" fill="#A0616A"/>
<path d="M471.077 396.824H488.396V409.62H460.172C460.172 407.939 460.454 406.275 461.002 404.723C461.55 403.17 462.353 401.76 463.366 400.572C464.379 399.383 465.581 398.441 466.904 397.798C468.227 397.155 469.645 396.824 471.077 396.824Z" fill="#2F2E41"/>
<path d="M550.198 398.116H541.218L536.945 357.47L550.2 357.471L550.198 398.116Z" fill="#A0616A"/>
<path d="M534.803 396.824H552.122V409.62H523.899C523.899 407.939 524.181 406.275 524.729 404.723C525.277 403.17 526.08 401.76 527.093 400.572C528.105 399.383 529.307 398.441 530.63 397.798C531.953 397.155 533.371 396.824 534.803 396.824Z" fill="#2F2E41"/>
<path d="M486.623 372.942C486.525 372.942 486.428 372.937 486.329 372.928L473.619 371.734C473.115 371.687 472.625 371.518 472.179 371.237C471.733 370.956 471.342 370.571 471.03 370.104C470.717 369.637 470.491 369.099 470.365 368.524C470.238 367.949 470.215 367.35 470.295 366.764L489.566 226.9L490.857 207.173C490.914 206.251 491.224 205.375 491.741 204.678C492.259 203.98 492.955 203.498 493.725 203.304L513.108 198.329C513.821 198.142 514.565 198.211 515.243 198.527C515.922 198.843 516.504 199.391 516.914 200.1L521.64 208.206C523.496 211.357 525.512 214.374 527.679 217.239C531.032 221.721 536.734 231.671 537.245 247.955C537.383 253.304 537.856 258.635 538.662 263.903L554.266 362.544C554.345 363.122 554.323 363.713 554.2 364.281C554.077 364.849 553.857 365.381 553.552 365.845C553.248 366.309 552.865 366.695 552.429 366.98C551.993 367.264 551.511 367.441 551.015 367.499L538.966 368.57C538.104 368.67 537.24 368.406 536.529 367.827C535.817 367.247 535.304 366.389 535.083 365.407L513.711 272.146C513.669 271.963 513.577 271.802 513.449 271.687C513.321 271.572 513.164 271.51 513.003 271.51C512.841 271.51 512.685 271.573 512.557 271.688C512.429 271.804 512.337 271.966 512.296 272.149L490.16 369.75C489.952 370.665 489.493 371.473 488.853 372.05C488.214 372.628 487.43 372.941 486.623 372.942Z" fill="#2F2E41"/>
<path d="M520.422 134.944C530.358 134.944 538.413 125.492 538.413 113.833C538.413 102.173 530.358 92.7216 520.422 92.7216C510.486 92.7216 502.431 102.173 502.431 113.833C502.431 125.492 510.486 134.944 520.422 134.944Z" fill="#A0616A"/>
<path d="M489.929 210.347L489.557 180.199C488.186 160.917 495.463 150.793 501.81 145.701C503.446 144.404 505.29 143.512 507.229 143.076C509.169 142.64 511.163 142.671 513.092 143.167L527.251 146.758C529.223 147.263 531.087 148.231 532.73 149.604C534.374 150.978 535.763 152.728 536.814 154.749C537.819 156.657 538.479 158.786 538.752 161.005C539.026 163.224 538.908 165.486 538.405 167.649C537.421 171.698 535.24 175.204 532.252 177.536C520.086 187.613 519.229 204.541 519.222 204.712L519.207 205.062L489.929 210.347Z" fill="#468189"/>
<path d="M450.633 192.719C449.9 193.747 448.989 194.58 447.961 195.165C446.933 195.749 445.812 196.071 444.67 196.11C443.528 196.149 442.392 195.903 441.337 195.389C440.283 194.876 439.332 194.105 438.55 193.129C431.454 184.398 443.053 171.286 450.175 180.037C450.426 180.339 450.659 180.66 450.873 181L486.785 179.952L491.072 170.752L504.246 176.755C501.717 181.357 498.812 199.421 492.197 198.541C491.33 198.569 451.52 192.793 450.633 192.719Z" fill="#A0616A"/>
<path d="M498.675 185.758L488.636 177.113C487.932 176.505 487.462 175.595 487.33 174.581C487.197 173.568 487.413 172.534 487.929 171.706L500.714 151.264C501.453 150.081 502.385 149.08 503.454 148.319C504.523 147.558 505.71 147.051 506.946 146.828C508.182 146.606 509.444 146.671 510.659 147.02C511.873 147.369 513.018 147.996 514.026 148.864C515.034 149.733 515.887 150.826 516.535 152.081C517.184 153.336 517.615 154.728 517.804 156.179C517.994 157.63 517.938 159.11 517.64 160.535C517.342 161.961 516.808 163.303 516.067 164.486L503.283 184.928C502.765 185.755 501.989 186.306 501.125 186.461C500.261 186.617 499.38 186.364 498.675 185.758Z" fill="#468189"/>
<path d="M516.049 108.557C513.506 109.501 510.865 110.035 508.199 110.143C505.535 110.107 502.767 109.114 500.968 106.809C498.413 103.534 498.446 98.1988 500.424 94.4134C502.401 90.628 505.951 88.2699 509.621 87.1901C513.291 86.1104 517.125 86.1613 520.908 86.2211C525.401 82.3774 531.952 82.9621 536.562 86.6094C541.173 90.2566 543.99 96.4392 545.186 102.811C546.382 109.183 546.121 115.798 545.667 122.301C545.419 125.864 545.673 130.491 548.574 131.583C550.405 132.272 552.384 131.008 553.696 129.358C555.008 127.709 555.924 125.66 557.296 124.078C560.218 120.708 564.908 120.025 568.769 121.635C572.63 123.245 575.71 126.831 577.881 130.908C580.844 136.471 582.291 142.962 582.03 149.514C581.769 156.067 579.812 162.37 576.42 167.584C573.028 172.799 568.362 176.676 563.045 178.699C557.727 180.723 552.011 180.796 546.657 178.909C536.75 175.419 529.271 165.608 524.459 154.865C518.288 141.02 515.735 125.346 517.12 109.806L516.049 108.557Z" fill="#2F2E41"/>
<path d="M637.268 410H0.732491C0.538223 410 0.35191 409.909 0.214541 409.748C0.0771724 409.587 0 409.368 0 409.14C0 408.913 0.0771724 408.694 0.214541 408.533C0.35191 408.372 0.538223 408.281 0.732491 408.281H637.268C637.462 408.281 637.648 408.372 637.785 408.533C637.923 408.694 638 408.913 638 409.14C638 409.368 637.923 409.587 637.785 409.748C637.648 409.909 637.462 410 637.268 410Z" fill="#3F3D56"/>
</svg>
