<svg width="447" height="566" viewBox="0 0 447 566" fill="none" xmlns="http://www.w3.org/2000/svg">
<g clip-path="url(#clip0_49_2498)">
<path d="M255.118 147.273C255.118 146.626 255.278 145.986 255.589 145.388C255.9 144.79 256.356 144.247 256.931 143.789C257.506 143.332 258.189 142.969 258.94 142.722C259.692 142.474 260.497 142.347 261.31 142.347H285.738C286.552 142.346 287.358 142.473 288.111 142.72C288.863 142.967 289.547 143.329 290.123 143.787C290.699 144.245 291.156 144.788 291.468 145.386C291.78 145.985 291.94 146.626 291.94 147.273V148.621H348.129V80.6235H196.294V148.621H255.118V147.273Z" fill="#3F3D56"/>
<path d="M396.984 80.624H356.015V148.621H390.802L396.984 80.624Z" fill="#3F3D56"/>
<path d="M348.127 0V74.3424H298.761C273.149 74.3394 248.466 66.7063 229.574 52.9465C210.683 39.1868 198.952 20.2978 196.693 0H348.127Z" fill="#3F3D56"/>
<path d="M403.084 13.6393L397.553 74.3424H356.012V0H387.153C389.349 0.000894966 391.521 0.361825 393.533 1.06027C395.546 1.75871 397.357 2.77968 398.851 4.05947C400.346 5.33927 401.493 6.85043 402.222 8.49866C402.95 10.1469 403.243 11.8968 403.084 13.6393Z" fill="#3F3D56"/>
<path d="M388.886 169.546L382.263 268.664L382.213 269.382L380.079 301.34C379.746 308.613 375.88 315.5 369.295 320.552C362.71 325.604 353.918 328.427 344.77 328.427H200.961C195.066 328.433 189.264 327.259 184.088 325.015C183.998 324.975 183.908 324.935 183.827 324.903C182.976 324.529 182.154 324.122 181.353 323.7C181.152 323.588 180.952 323.484 180.751 323.373C176.259 320.884 172.555 317.598 169.935 313.773C167.314 309.949 165.848 305.692 165.652 301.34L156.845 169.546H388.886Z" fill="#3F3D56"/>
<path d="M143.739 25.4299L148.191 74.342H188.399V0H173.327C173.193 0 173.06 0.000477952 172.926 0.00142922C168.872 0.0504402 164.874 0.758701 161.177 2.08265C157.48 3.40661 154.163 5.31826 151.429 7.70005C148.695 10.0818 146.603 12.8834 145.28 15.9325C143.958 18.9815 143.433 22.2136 143.739 25.4299Z" fill="#3F3D56"/>
<path d="M154.944 148.621H188.399V80.624H148.762L154.944 148.621Z" fill="#3F3D56"/>
<path d="M347.886 7.17432H348.127V72.5408H347.886C336.991 72.5408 326.542 69.0974 318.838 62.9681C311.134 56.8388 306.806 48.5257 306.806 39.8576C306.806 31.1894 311.134 22.8763 318.838 16.747C326.542 10.6177 336.991 7.17432 347.886 7.17432Z" fill="#468189"/>
<path d="M388.966 39.8575C388.964 47.4038 385.681 54.7171 379.675 60.5576C373.669 66.3982 365.309 70.4065 356.012 71.9031V7.81201C365.309 9.30857 373.669 13.3169 379.675 19.1574C385.681 24.998 388.964 32.3113 388.966 39.8575Z" fill="#468189"/>
<path opacity="0.3" d="M185.473 175.057C191.157 175.269 202.914 177.515 215.654 180.419C228.387 183.325 242.198 186.871 255.833 190.379C279.701 196.513 303.568 202.646 327.434 208.777C330.715 209.618 334.005 210.467 337.304 211.324C338.567 212.638 339.824 213.966 341.057 215.307C338.157 214.492 335.246 213.702 332.343 212.95C319.94 209.744 309.178 207.629 297.141 204.712C278.617 200.226 259.075 194.335 240.121 188.849C221.17 183.358 199.426 177.449 185.473 175.057Z" fill="#F0F0F0"/>
<path d="M268.818 40.1954C270.403 40.1954 271.687 39.1734 271.687 37.9128C271.687 36.6521 270.403 35.6301 268.818 35.6301C267.234 35.6301 265.949 36.6521 265.949 37.9128C265.949 39.1734 267.234 40.1954 268.818 40.1954Z" fill="white"/>
<path d="M371.017 102.373C372.601 102.373 373.886 101.351 373.886 100.091C373.886 98.8301 372.601 97.8081 371.017 97.8081C369.432 97.8081 368.148 98.8301 368.148 100.091C368.148 101.351 369.432 102.373 371.017 102.373Z" fill="white"/>
<path d="M282.845 312.862C283.905 312.862 284.764 312.179 284.764 311.336C284.764 310.493 283.905 309.81 282.845 309.81C281.786 309.81 280.927 310.493 280.927 311.336C280.927 312.179 281.786 312.862 282.845 312.862Z" fill="white"/>
<path d="M347.972 198.072C349.031 198.072 349.89 197.389 349.89 196.546C349.89 195.703 349.031 195.02 347.972 195.02C346.913 195.02 346.054 195.703 346.054 196.546C346.054 197.389 346.913 198.072 347.972 198.072Z" fill="white"/>
<path d="M237.758 111.183C238.817 111.183 239.676 110.499 239.676 109.657C239.676 108.814 238.817 108.13 237.758 108.13C236.698 108.13 235.84 108.814 235.84 109.657C235.84 110.499 236.698 111.183 237.758 111.183Z" fill="white"/>
<path d="M209.703 236.335C210.763 236.335 211.621 235.652 211.621 234.809C211.621 233.966 210.763 233.283 209.703 233.283C208.644 233.283 207.785 233.966 207.785 234.809C207.785 235.652 208.644 236.335 209.703 236.335Z" fill="white"/>
<path d="M300.024 253.149C299.353 252.799 298.658 252.447 297.946 252.11C294.622 250.544 290.928 249.323 287.317 250.159C283.534 251.035 281.116 253.9 279.078 256.584C268.043 271.108 258.472 286.305 250.456 302.032C263.166 293.599 266.446 278.92 277.775 269.319C279.692 267.698 282.129 266.143 284.923 266.242C287.176 266.32 289.11 267.449 291.096 268.294C296.327 270.524 302.453 270.892 308.374 271.217C316.568 271.668 324.763 272.118 332.96 272.567L332.971 272.463C327.165 268.648 321.22 264.979 315.137 261.458C310.184 258.586 305.146 255.817 300.024 253.149Z" fill="#F2F2F2"/>
<path d="M356.854 288.976C348.346 279.973 338.634 271.732 327.887 264.4C327.026 263.81 326.154 263.228 325.272 262.646C323.389 261.41 321.482 260.201 319.551 259.019C315.463 256.532 311.269 254.177 306.967 251.956C304.382 250.625 301.76 249.341 299.101 248.106C298.43 247.795 297.759 247.484 297.078 247.181C295.384 246.424 293.691 245.666 291.958 244.965C290.301 244.192 288.443 243.734 286.527 243.626C279.944 243.546 276.528 249.477 274.183 253.471C273.452 254.73 272.707 255.984 271.949 257.233C269.103 261.976 266.144 266.674 263.071 271.327C261.178 274.205 259.244 277.064 257.27 279.904C254.465 283.93 251.582 287.916 248.623 291.861C245.076 296.597 241.419 301.276 237.652 305.899C231.169 313.847 224.727 321.133 217.813 328.427H218.856C226.561 320.176 233.878 311.721 240.808 303.061C246.82 295.552 252.538 287.902 257.962 280.111C260.537 276.405 263.045 272.669 265.486 268.903C267.37 265.978 269.217 263.042 271.027 260.095C271.548 259.25 272.049 258.405 272.55 257.552C273.732 255.551 274.884 253.542 276.127 251.573C277.54 249.333 279.253 246.974 281.858 245.467C283.038 244.753 284.448 244.319 285.926 244.216C288.01 244.229 290.051 244.695 291.827 245.563C294.182 246.543 296.513 247.564 298.821 248.624C305.843 251.877 312.597 255.485 319.04 259.425C322.507 261.546 325.877 263.751 329.15 266.042C340.54 273.996 350.719 282.986 359.479 292.826C359.749 293.129 360.381 292.842 360.11 292.531C359.048 291.335 357.963 290.15 356.854 288.976Z" fill="#F2F2F2"/>
<path d="M376.782 265.268C373.035 263.052 369.154 260.99 365.14 259.083C363.136 258.126 361.112 257.217 359.048 256.34C358.427 256.077 357.796 255.822 357.164 255.575C355.721 254.993 354.22 254.508 352.676 254.124C350.492 253.562 348.182 253.38 345.902 253.59C343.7 253.845 341.579 254.429 339.65 255.312C335.552 257.138 332.376 259.951 329.29 262.702C329.226 262.758 329.191 262.831 329.193 262.907C329.195 262.982 329.233 263.054 329.3 263.108C329.33 263.138 329.368 263.162 329.412 263.179C329.455 263.195 329.502 263.204 329.551 263.204C329.599 263.204 329.646 263.195 329.69 263.179C329.733 263.162 329.771 263.138 329.801 263.108C330.192 262.773 330.563 262.431 330.953 262.096C333.989 259.417 337.246 256.779 341.424 255.248C343.411 254.491 345.583 254.091 347.786 254.076C350.057 254.123 352.297 254.51 354.389 255.216C355.381 255.535 356.353 255.894 357.315 256.277C358.407 256.715 359.489 257.185 360.551 257.656C362.565 258.541 364.549 259.463 366.502 260.422C370.4 262.335 374.171 264.397 377.814 266.608C379.307 267.508 380.77 268.425 382.213 269.382L382.263 268.664C380.47 267.493 378.643 266.361 376.782 265.268Z" fill="#F2F2F2"/>
<path d="M199.788 305.07C204.057 300.813 208.362 296.578 212.704 292.364C213.746 291.343 214.798 290.315 215.86 289.303C216.712 288.459 217.643 287.667 218.645 286.935C219.625 286.201 220.78 285.632 222.042 285.261C223.455 284.911 224.965 284.894 226.39 285.213C228.02 285.59 229.625 286.031 231.2 286.536L236.079 287.955L245.888 290.809C245.949 290.832 246.019 290.837 246.084 290.824C246.15 290.811 246.208 290.781 246.249 290.737C246.287 290.699 246.313 290.653 246.325 290.605C246.337 290.557 246.335 290.507 246.318 290.46C246.301 290.413 246.271 290.369 246.23 290.333C246.188 290.297 246.136 290.269 246.078 290.251L243.614 289.526L233.734 286.656C232.091 286.178 230.458 285.691 228.815 285.221C227.309 284.717 225.699 284.436 224.066 284.392C221.28 284.432 218.956 285.787 217.092 287.318C216.08 288.155 215.158 289.055 214.237 289.956C213.144 291.016 212.042 292.085 210.95 293.153C206.562 297.426 202.203 301.722 197.875 306.043C193.546 310.363 189.245 314.697 184.97 319.044C183.557 320.487 182.151 321.93 180.751 323.373C180.952 323.484 181.152 323.588 181.353 323.7C183.236 321.755 185.133 319.815 187.044 317.88C191.262 313.592 195.51 309.322 199.788 305.07Z" fill="#F2F2F2"/>
<path d="M342.712 258.61C339.071 260.099 336.308 262.679 332.776 264.326C341.282 262.323 349.928 260.718 358.669 259.518C356.35 258.254 353.65 257.504 350.846 257.344C348.041 257.185 345.234 257.622 342.712 258.61Z" fill="#F2F2F2"/>
<path d="M358.669 259.518C359.016 259.711 359.354 259.915 359.679 260.132L358.718 259.511L358.669 259.518Z" fill="#F2F2F2"/>
<path d="M222.466 288.542C221.066 289.034 219.869 289.83 219.01 290.837C207.026 302.443 195.041 314.05 183.057 325.656C199.675 315.637 213.545 303.022 223.815 288.584L222.466 288.542Z" fill="#F2F2F2"/>
<path d="M100.056 316.156C100.06 316.177 100.065 316.19 100.069 316.211C100.1 316.354 100.13 316.484 100.165 316.627V316.634C101.654 323.177 103.289 329.61 105.072 335.933L441.745 335.36C443.552 328.906 445.211 322.334 446.721 315.644C446.726 315.628 446.729 315.612 446.73 315.596L100.056 316.156Z" fill="#E6E6E6"/>
<path d="M117.228 244.314L140.655 243.754C146.982 254.827 139.237 278.776 139.237 278.776L130.527 328.043C131.907 328.984 132.951 330.198 133.553 331.563C134.156 332.927 134.296 334.394 133.96 335.815C133.623 337.236 132.822 338.562 131.637 339.659C130.453 340.755 128.925 341.584 127.21 342.062C125.494 342.54 123.65 342.65 121.864 342.38C120.079 342.111 118.413 341.472 117.036 340.528C115.659 339.584 114.619 338.368 114.021 337.003C113.422 335.637 113.286 334.17 113.627 332.749L107.792 278.71L117.228 244.314Z" fill="#FFB8B8"/>
<path d="M116.214 248.581L121.127 221.661L134.161 211.693C136.728 209.744 139.93 208.405 143.404 207.827C146.878 207.25 150.486 207.457 153.82 208.425C158.329 209.762 162.031 212.411 164.178 215.836C166.326 219.261 166.758 223.208 165.388 226.877C161.222 238.003 154.162 251.684 144.185 253.68L144.084 253.701L116.214 248.581Z" fill="#468189"/>
<path d="M215.273 553.176H228.055L234.135 513.953L215.271 513.954L215.273 553.176Z" fill="#FFB6B6"/>
<path d="M212.018 549.855V563.032H253.228V562.617C253.227 559.232 251.537 555.987 248.529 553.593C245.521 551.2 241.441 549.855 237.187 549.855L229.652 545.311L229.261 545.438L215.615 549.855H212.018Z" fill="#2F2E41"/>
<path d="M128.104 553.176H140.886L146.966 513.953L128.102 513.954L128.104 553.176Z" fill="#FFB6B6"/>
<path d="M124.849 549.855V563.032H166.059V562.617C166.058 559.232 164.368 555.987 161.359 553.593C158.351 551.2 154.272 549.855 150.017 549.855L142.483 545.311L142.092 545.438L128.446 549.855H124.849Z" fill="#2F2E41"/>
<path d="M223.833 312.304L135.655 308.197C135.655 308.197 117.438 335.601 123.45 355.53C129.462 375.459 131.55 415.251 128.001 418.472C124.452 421.693 123.45 416.113 127.458 422.491C131.511 428.94 130.464 420.896 130.464 426.476C130.292 430.147 128.922 433.718 126.487 436.838V533.234L157.452 531.65C157.452 531.65 165.816 528.399 158.66 522.875C151.505 517.352 146.923 521.695 151.218 514.741C155.512 507.786 157.516 515.757 155.512 507.786C153.509 499.814 178.714 380.142 178.714 380.142C178.714 380.142 188.381 404.875 192.584 427.274C199.821 465.838 203.676 511.58 206.56 513.971C211.12 517.75 214.126 512.967 211.12 517.75C208.115 522.533 201.385 521.51 205.752 524.413C210.119 527.316 210.119 523.33 210.119 527.316C210.153 529.856 210.606 532.382 211.466 534.828L237.034 533.462L235.668 429.665L223.833 312.304Z" fill="#2F2E41"/>
<path d="M198.749 189.24L170.474 186.563L163.234 198.654C163.234 198.654 123.569 215.689 125.012 219.844C126.456 224 137.477 241.537 134.472 246.32C131.466 251.103 123.64 252.694 129.557 257.08C135.474 261.466 139.481 263.06 137.477 267.046C135.474 271.032 136.475 285.381 136.475 285.381C136.475 285.381 124.841 302.374 128.654 305.834C132.468 309.295 135.474 305.9 132.468 310.786C129.462 315.672 106.338 321.268 128.42 321.659C150.503 322.05 155.512 310.889 172.546 319.658C189.579 328.427 223.282 320.223 223.282 320.223C223.282 320.223 225.239 310.889 224.442 305.309C223.645 299.729 221.78 302.5 223.214 293.143C224.647 283.786 226.993 261.609 226.993 261.609C226.993 261.609 240.008 215.692 236.67 211.245C233.333 206.799 203.969 200.914 203.969 200.914L198.749 189.24Z" fill="#468189"/>
<path d="M218.147 256.621L238.395 247.23C250.599 254.555 258.167 278.54 258.167 278.54L280.082 325.137C281.86 325.44 283.505 326.11 284.854 327.08C286.202 328.05 287.205 329.285 287.763 330.662C288.32 332.038 288.412 333.507 288.029 334.921C287.646 336.335 286.802 337.643 285.581 338.715C284.36 339.786 282.807 340.583 281.076 341.025C279.345 341.467 277.498 341.538 275.722 341.232C273.945 340.926 272.302 340.252 270.956 339.28C269.611 338.307 268.611 337.07 268.058 335.692L230.498 290.428L218.147 256.621Z" fill="#FFB8B8"/>
<path d="M219.817 260.756L207.977 235.237L213.447 221.527C214.533 218.839 216.543 216.446 219.249 214.619C221.955 212.792 225.249 211.603 228.759 211.187C238.643 210.071 239.516 212.829 241.588 220.598C244.605 231.957 245.844 237.88 247.453 254.611L247.377 254.667L219.817 260.756Z" fill="#468189"/>
<path d="M187.426 182.173C202.163 182.173 214.11 172.668 214.11 160.944C214.11 149.219 202.163 139.714 187.426 139.714C172.689 139.714 160.743 149.219 160.743 160.944C160.743 172.668 172.689 182.173 187.426 182.173Z" fill="#FFB8B8"/>
<path d="M181.599 181.575C189.091 180.303 189.419 178.622 196.912 177.35C199.298 176.945 202.071 176.28 202.854 174.442C203.412 173.133 202.694 171.687 201.69 170.559C200.565 169.507 199.516 168.404 198.549 167.256C197.915 166.339 197.572 165.312 197.549 164.265C197.526 163.218 197.824 162.183 198.416 161.248C199.009 160.313 199.879 159.507 200.951 158.9C202.023 158.292 203.264 157.902 204.569 157.761C206.88 157.513 209.227 158.064 211.55 157.895C214.735 157.663 219.816 148.434 217.87 146.414C215.976 144.447 212.779 143.216 211.791 140.867C211.144 139.33 211.61 137.646 211.363 136.038C210.997 133.653 204.674 140.049 205.58 137.757C207.801 132.136 174.521 130.304 170.728 137.49C169.311 140.175 165.782 140.509 162.995 142.398C161.168 143.636 156.753 147.638 156.041 149.842C155.433 152.073 155.428 154.382 156.027 156.615C158.333 167.069 162.498 176.393 174.481 181.058" fill="#2F2E41"/>
<path d="M60.8112 559.704C53.5756 560.212 46.289 559.427 39.4835 557.407C32.6781 555.387 26.5256 552.183 21.4755 548.03C14.8721 542.491 10.3406 535.361 5.95825 528.466C4.68257 526.46 3.36394 524.385 2.02241 522.397C0.526777 520.229 -0.118705 517.754 0.16911 515.292C0.456926 512.829 1.66487 510.492 3.63731 508.581C5.52751 506.67 8.09359 505.253 11.0049 504.513C13.9163 503.773 17.0394 503.744 19.972 504.428L20.6115 504.575L26.3668 522.443C27.2254 519.778 29.0684 513.773 30.2322 507.89L30.33 507.397L30.9031 507.6C36.9126 509.716 42.5633 512.425 47.722 515.664C56.8606 521.496 64.2933 528.841 69.5035 537.189C74.7137 545.537 77.5765 554.688 77.8928 564.006L77.908 564.561L60.8112 559.704Z" fill="#F2F2F2"/>
<path d="M445.807 565.755L1.19299 566C0.876588 566 0.573165 565.9 0.349434 565.722C0.125702 565.544 0 565.303 0 565.051C0 564.799 0.125702 564.558 0.349434 564.38C0.573165 564.202 0.876588 564.102 1.19299 564.102L445.807 563.857C446.123 563.857 446.427 563.957 446.651 564.135C446.874 564.313 447 564.554 447 564.806C447 565.058 446.874 565.299 446.651 565.477C446.427 565.655 446.123 565.755 445.807 565.755Z" fill="#CACACA"/>
</g>
<defs>
<clipPath id="clip0_49_2498">
<rect width="447" height="566" fill="white"/>
</clipPath>
</defs>
</svg>
